<?xml version="1.0" encoding="UTF-8"?>
<svg version="1.1" xmlns="http://www.w3.org/2000/svg" width="1024" height="1024">
<path d="M0 0 C337.92 0 675.84 0 1024 0 C1024 337.92 1024 675.84 1024 1024 C686.08 1024 348.16 1024 0 1024 C0 686.08 0 348.16 0 0 Z " fill="#FEFEFE" transform="translate(0,0)"/>
<path d="M0 0 C2.34959373 0.72871559 4.69993825 1.4550122 7.05078125 2.1796875 C9.80816151 3.06755202 12.56003353 3.97203706 15.3125 4.875 C16.80761713 5.3619038 18.30281746 5.84855216 19.7980957 6.33496094 C31.55692681 10.16783533 43.28410671 14.09485392 55.00933838 18.02905273 C63.69964359 20.94275413 72.39486182 23.78228836 81.1875 26.375 C93.89869647 30.12776059 106.40004953 34.51882829 118.92260742 38.85107422 C128.81550281 42.26788846 138.74033041 45.53492319 148.72998047 48.6574707 C154.17885407 50.36284393 159.59066975 52.17364897 165 54 C166.92942528 54.6440153 168.85911636 55.28723476 170.7890625 55.9296875 C181.53515625 59.51171875 192.28125 63.09375 203.02734375 66.67578125 C203.67864258 66.89266602 204.32994141 67.10955078 205.00097656 67.33300781 C206.36803183 67.78913812 207.73454447 68.2468971 209.10058594 68.70605469 C215.17220572 70.74254898 221.27156082 72.68631198 227.375 74.625 C241.77400803 79.21408782 256.10633174 83.99959802 270.43017578 88.81738281 C275.89267004 90.64896012 281.37995098 92.39390663 286.875 94.125 C296.83151518 97.2737005 306.74056083 100.55640817 316.63623047 103.89111328 C321.46023624 105.51166076 326.28009304 107.10427232 331.1640625 108.53515625 C336.23647485 110.03252091 341.17515608 111.82936894 346.125 113.6875 C346.98609375 114.00783203 347.8471875 114.32816406 348.734375 114.65820312 C350.82398074 115.43600082 352.91248268 116.21661846 355 117 C355 118.32 355 119.64 355 121 C350.05210644 123.6572021 345.38514142 125.57711048 339.9921875 127.1015625 C336.34588303 128.19640588 332.7701664 129.46585899 329.1875 130.75 C321.59749298 133.46440401 313.96522825 136.03539214 306.30737305 138.55175781 C301.84159253 140.02555588 297.42405676 141.57425364 293.02954102 143.24780273 C289.22014679 144.65965689 285.35775529 145.91519471 281.5 147.1875 C280.67757812 147.46013672 279.85515625 147.73277344 279.0078125 148.01367188 C277.00566899 148.67717292 275.00290004 149.3387862 273 150 C273.28746094 150.65226563 273.57492187 151.30453125 273.87109375 151.9765625 C281.49881694 172.40513602 280.14564442 194.59475209 280 216 C280.93070313 216.28101563 281.86140625 216.56203125 282.8203125 216.8515625 C286.03972452 218.01434768 287.98639837 219.22067505 290.08984375 221.953125 C292.03724064 226.33267852 291.61724534 231.33492468 291 236 C290.49919922 236.99966797 290.49919922 236.99966797 289.98828125 238.01953125 C288.68476589 240.6317142 288.7345033 242.65299419 288.75 245.5625 C288.74226562 246.98755859 288.74226562 246.98755859 288.734375 248.44140625 C288.95091519 251.34240787 289.33701857 253.98614422 289.8828125 256.83203125 C291.20898391 263.80094359 292.03868561 270.81987381 292.85986328 277.86181641 C293.12543832 280.12874148 293.40033022 282.39441252 293.67578125 284.66015625 C294.52562349 291.79496013 295.24484786 298.80147286 295 306 C293.77083333 306.66666667 292.54166667 307.33333333 291.3125 308 C290.62800781 308.37125 289.94351563 308.7425 289.23828125 309.125 C286.68468296 310.1232653 284.71820729 310.15233386 282 310 C281.66179834 308.4176994 281.32964061 306.83410625 281 305.25 C280.814375 304.36828125 280.62875 303.4865625 280.4375 302.578125 C280 300 280 300 280 296 C279.34 296 278.68 296 278 296 C278 300.95 278 305.9 278 311 C274.04 311 270.08 311 266 311 C265.67 302.42 265.34 293.84 265 285 C264.05306743 292.52370924 264.05306743 292.52370924 263.11547852 300.04858398 C262.93650024 301.44572632 262.93650024 301.44572632 262.75390625 302.87109375 C262.57323608 304.30859985 262.57323608 304.30859985 262.38891602 305.77514648 C262 308 262 308 261 309 C259.31391034 309.07205511 257.62499341 309.08386068 255.9375 309.0625 C255.01839844 309.05347656 254.09929688 309.04445313 253.15234375 309.03515625 C252.08693359 309.01775391 252.08693359 309.01775391 251 309 C250.76378288 302.03739488 251.68034809 295.45391068 252.75 288.58203125 C252.92756836 287.40662277 253.10513672 286.23121429 253.28808594 285.02018738 C253.85316826 281.28342228 254.4259532 277.54789764 255 273.8125 C255.57327043 270.06628357 256.14479461 266.31983034 256.71191406 262.57267761 C257.064261 260.2460228 257.42024271 257.91991484 257.78027344 255.59443665 C257.94043945 254.53951523 258.10060547 253.48459381 258.265625 252.39770508 C258.40774414 251.47363358 258.54986328 250.54956207 258.69628906 249.5974884 C259.33348431 244.21705586 259.33348431 244.21705586 257.5 239.25 C255.54792679 235.02050805 255.39063961 231.58667216 256 227 C257.56471648 222.85350134 259.45559503 219.71042733 263 217 C264.65 217 266.3 217 268 217 C267.34 200.17 266.68 183.34 266 166 C249.80235511 161.7469606 249.80235511 161.7469606 234.4375 164 C233.72005615 164.21640137 233.0026123 164.43280273 232.26342773 164.65576172 C225.03072565 166.89052939 217.92751512 169.49061435 210.83959961 172.14453125 C204.95470506 174.34071942 199.03887724 176.27089548 193 178 C193.26332312 182.81992465 193.52997063 187.63965031 193.79956055 192.45922852 C193.89062058 194.09524689 193.98080765 195.73131411 194.07006836 197.36743164 C194.66929261 208.62296946 194.66929261 208.62296946 195.78344727 219.83618164 C196.27910793 224.78887663 196.34209882 229.77737174 196.5 234.75 C196.83841587 244.85476386 196.83841587 244.85476386 197.5625 254.9375 C198.30102611 263.2689977 198.07941143 271.64415278 198 280 C192.42599547 283.17009536 186.54122022 284.65893368 180.375 286.3125 C178.11677237 286.93077744 175.85896403 287.55058815 173.6015625 288.171875 C172.48297852 288.47931641 171.36439453 288.78675781 170.21191406 289.10351562 C165.70542021 290.361333 161.22619376 291.7013975 156.75 293.0625 C142.19377036 297.46951197 127.57350208 301.59393988 112.875 305.5 C104.49715551 307.7289678 96.21387807 310.12645781 87.96899414 312.80297852 C81.21390731 314.97866346 74.39084126 316.84310084 67.53759766 318.68212891 C57.67411264 321.33629682 47.87890931 324.21188879 38.08056641 327.09570312 C34.92376429 328.02237891 31.76497383 328.94195974 28.60546875 329.859375 C27.55866943 330.16359375 26.51187012 330.4678125 25.43334961 330.78125 C23.37588956 331.37870691 21.31811627 331.9750863 19.26000977 332.5703125 C15.12864765 333.77026179 11.00601522 334.97507141 6.921875 336.328125 C5.81328125 336.69421875 4.7046875 337.0603125 3.5625 337.4375 C2.67691406 337.74558594 1.79132813 338.05367187 0.87890625 338.37109375 C-7.20088071 340.13614897 -13.8175684 338.47817131 -21.5 335.8125 C-23.28042829 335.21240029 -25.06170909 334.61482509 -26.84375 334.01953125 C-27.80490723 333.69839355 -28.76606445 333.37725586 -29.75634766 333.04638672 C-35.69377402 331.1310014 -41.69046282 329.41351182 -47.68127441 327.67416382 C-50.82391165 326.7604497 -53.96421384 325.83884482 -57.10458374 324.91737366 C-61.27751864 323.69308154 -65.45131556 322.47173393 -69.625 321.25 C-70.51229797 320.99021362 -71.39959595 320.73042725 -72.31378174 320.46276855 C-83.99630807 317.04271582 -95.68281864 313.63688693 -107.375 310.25 C-124.6098977 305.25630176 -141.81595959 300.1659447 -159 295 C-159 294.34 -159 293.68 -159 293 C-160.76730469 293.061875 -160.76730469 293.061875 -162.5703125 293.125 C-166.66003693 293.11782819 -169.98054409 292.31839042 -173.875 291 C-175.24817297 290.54528665 -176.62191772 290.09229796 -177.99609375 289.640625 C-178.76679199 289.38474609 -179.53749023 289.12886719 -180.33154297 288.86523438 C-187.01341772 286.69866858 -193.75441257 284.7122573 -200.47802734 282.6796875 C-201.56680176 282.34710938 -202.65557617 282.01453125 -203.77734375 281.671875 C-204.75952881 281.3737793 -205.74171387 281.07568359 -206.75366211 280.76855469 C-209 280 -209 280 -210 279 C-210.13056618 276.3006201 -210.18526279 273.63781514 -210.1875 270.9375 C-210.19974609 270.21755859 -210.21199219 269.49761719 -210.22460938 268.75585938 C-210.2372487 263.81388256 -209.77146546 259.06922474 -209.0859375 254.17578125 C-207.36839342 241.61045385 -207.04516989 228.90590941 -206.4375 216.25 C-206.24906824 212.41508723 -206.05890166 208.58027083 -205.86671448 204.74554443 C-205.74845166 202.37705576 -205.63251192 200.00844943 -205.51939392 197.63970947 C-205.16392464 190.410753 -204.64826589 183.20859881 -204 176 C-204.88850143 175.70577652 -204.88850143 175.70577652 -205.79495239 175.40560913 C-211.40106938 173.54724082 -216.98733571 171.63663507 -222.5625 169.6875 C-223.43527588 169.38263672 -224.30805176 169.07777344 -225.20727539 168.76367188 C-230.47905784 166.9126071 -235.71828585 164.99387978 -240.9375 163 C-248.07333268 160.27779162 -255.29974731 157.8634322 -262.55200195 155.47143555 C-268.74610726 153.42691808 -274.88609193 151.27340475 -281 149 C-292.24759668 144.8391855 -303.58732543 140.9358038 -314.91088867 136.98803711 C-317.55935183 136.06441039 -320.2074244 135.13967039 -322.85546875 134.21484375 C-323.65462204 133.93664291 -324.45377533 133.65844208 -325.27714539 133.37181091 C-328.99216099 132.07398086 -332.69360349 130.75063908 -336.3762207 129.36328125 C-339.5632129 128.16432117 -342.75481861 127.08984682 -346 126.0625 C-350.94893482 124.4358831 -355.41715889 122.46768367 -360 120 C-359.93847656 118.18115234 -359.93847656 118.18115234 -359 116 C-356.62854194 114.81350127 -354.47934615 113.93631378 -351.984375 113.1015625 C-350.90769562 112.72072006 -350.90769562 112.72072006 -349.80926514 112.33218384 C-347.54517047 111.53717444 -345.27388494 110.76650701 -343 110 C-341.62946985 109.52987722 -340.25902439 109.05950749 -338.88867188 108.58886719 C-334.68497133 107.15616687 -330.46807887 105.7646693 -326.25 104.375 C-324.66680025 103.85067551 -323.08371387 103.32600858 -321.50073242 102.80102539 C-318.24425024 101.72133644 -314.98730297 100.643069 -311.72998047 99.56591797 C-305.29147064 97.43576056 -298.85843192 95.2892537 -292.42544556 93.14248657 C-288.76828687 91.92227162 -285.11067576 90.70341411 -281.453125 89.484375 C-279.82226354 88.94076147 -278.19140427 88.39714137 -276.56054688 87.85351562 C-262.46850586 83.15616862 -248.37646484 78.45882161 -234.28442383 73.76147461 C-233.11445358 73.37145767 -231.94448334 72.98144073 -230.73905945 72.5796051 C-228.43273835 71.81088526 -226.12635299 71.04235815 -223.81990051 70.27403259 C-218.53188511 68.5122567 -213.24479141 66.74786359 -207.96044922 64.97509766 C-206.54650124 64.5015258 -206.54650124 64.5015258 -205.10398865 64.01838684 C-203.38290282 63.44178834 -201.66220717 62.86402296 -199.94203186 62.28471375 C-195.93053779 60.94197031 -191.91219854 59.67373679 -187.84985352 58.49291992 C-183.74934679 57.28003244 -179.91966292 55.71637943 -176 54 C-173.38734545 53.06789968 -170.74727628 52.23135237 -168.1015625 51.3984375 C-166.56620466 50.90759215 -165.03088722 50.4166204 -163.49560547 49.92553711 C-162.70007263 49.67238739 -161.90453979 49.41923767 -161.0848999 49.15841675 C-147.95228261 44.97600578 -134.89177208 40.68175623 -121.97900391 35.85498047 C-116.5367959 33.83636308 -111.10833904 32.13382069 -105.48168945 30.70092773 C-102.99705185 29.99916733 -100.69357699 29.12001435 -98.3125 28.125 C-94.17473585 26.40343074 -89.97974745 25.0201246 -85.6953125 23.71875 C-77.98027997 21.34026572 -70.34467315 18.76517784 -62.71746826 16.12042236 C-60.49244524 15.35076745 -58.26535845 14.58737575 -56.03759766 13.82568359 C-49.01331072 11.42287196 -41.99540428 9.00658292 -35.00138855 6.51681519 C-32.01204349 5.45664869 -29.01657058 4.41459953 -26.01974487 3.37579346 C-24.60465816 2.88042552 -23.19237678 2.37695988 -21.78323364 1.8649292 C-13.95275407 -0.97668902 -8.02236102 -3.00313515 0 0 Z " fill="#112453" transform="translate(531,174)"/>
<path d="M0 0 C6.6386944 1.91225867 13.07248377 4.09555946 19.5 6.625 C27.60735138 9.76806738 35.77163933 12.68981233 44 15.5 C53.0937141 18.60756176 62.10960781 21.8613441 71.06445312 25.34960938 C76.32924971 27.39582859 81.6269058 29.25870242 87 31 C89.47980765 31.81056909 91.95874769 32.6237008 94.4375 33.4375 C95.63246094 33.82808594 96.82742188 34.21867187 98.05859375 34.62109375 C100.93940209 35.5984123 103.75316791 36.69227884 106.5703125 37.83984375 C112.46743243 40.22675993 118.45791766 42.32734628 124.46066284 44.43154907 C141.3941863 50.3716274 158.22561147 56.57305311 175.0234375 62.88671875 C175.76150635 63.16410889 176.4995752 63.44149902 177.26000977 63.72729492 C179.12853526 64.43074243 180.99596894 65.13708836 182.86328125 65.84375 C193.73808863 69.85239631 202.06569804 69.99451772 213 66 C213.64195312 65.77183594 214.28390625 65.54367187 214.9453125 65.30859375 C217.88932711 64.23076413 220.80314689 63.07779728 223.71875 61.92553711 C232.11719538 58.63892958 240.61679093 55.73396231 249.1875 52.9375 C256.74767517 50.47031657 264.26002694 47.97981702 271.61938477 44.95385742 C275.98095567 43.20627692 280.4315391 41.71169266 284.875 40.1875 C286.93493668 39.47537858 288.99483191 38.76313721 291.0546875 38.05078125 C292.06885742 37.70096191 293.08302734 37.35114258 294.12792969 36.99072266 C310.02789174 31.50601966 325.8576918 25.83065482 341.68286133 20.13452148 C351.10214101 16.74598172 360.53322265 13.39959312 369.9987793 10.14208984 C375.24173823 8.3188144 380.34289594 6.25332137 385.39453125 3.9453125 C388.56882756 2.79361879 391.65420644 2.38684452 395 2 C398.08136831 21.56996684 399.01100352 41.41960282 399.67382812 61.19677734 C399.85196031 66.46058335 400.08488845 71.69040645 400.5625 76.9375 C401.30102611 85.2689977 401.07941143 93.64415278 401 102 C395.42599547 105.17009536 389.54122022 106.65893368 383.375 108.3125 C381.11677237 108.93077744 378.85896403 109.55058815 376.6015625 110.171875 C375.48297852 110.47931641 374.36439453 110.78675781 373.21191406 111.10351562 C368.70542021 112.361333 364.22619376 113.7013975 359.75 115.0625 C345.19377036 119.46951197 330.57350208 123.59393988 315.875 127.5 C307.49715551 129.7289678 299.21387807 132.12645781 290.96899414 134.80297852 C284.21390731 136.97866346 277.39084126 138.84310084 270.53759766 140.68212891 C260.67411264 143.33629682 250.87890931 146.21188879 241.08056641 149.09570312 C237.92376429 150.02237891 234.76497383 150.94195974 231.60546875 151.859375 C230.55866943 152.16359375 229.51187012 152.4678125 228.43334961 152.78125 C226.37588956 153.37870691 224.31811627 153.9750863 222.26000977 154.5703125 C218.12864765 155.77026179 214.00601522 156.97507141 209.921875 158.328125 C208.25898437 158.87726563 208.25898437 158.87726563 206.5625 159.4375 C205.67691406 159.74558594 204.79132813 160.05367187 203.87890625 160.37109375 C195.79911929 162.13614897 189.1824316 160.47817131 181.5 157.8125 C179.71957171 157.21240029 177.93829091 156.61482509 176.15625 156.01953125 C175.19509277 155.69839355 174.23393555 155.37725586 173.24365234 155.04638672 C167.30622598 153.1310014 161.30953718 151.41351182 155.31872559 149.67416382 C152.17608835 148.7604497 149.03578616 147.83884482 145.89541626 146.91737366 C141.72248136 145.69308154 137.54868444 144.47173393 133.375 143.25 C132.48770203 142.99021362 131.60040405 142.73042725 130.68621826 142.46276855 C119.00369193 139.04271582 107.31718136 135.63688693 95.625 132.25 C78.3901023 127.25630176 61.18404041 122.1659447 44 117 C44 116.34 44 115.68 44 115 C42.82179688 115.04125 41.64359375 115.0825 40.4296875 115.125 C36.33996307 115.11782819 33.01945591 114.31839042 29.125 113 C27.75182703 112.54528665 26.37808228 112.09229796 25.00390625 111.640625 C24.23320801 111.38474609 23.46250977 111.12886719 22.66845703 110.86523438 C15.98658228 108.69866858 9.24558743 106.7122573 2.52197266 104.6796875 C1.43319824 104.34710938 0.34442383 104.01453125 -0.77734375 103.671875 C-2.25062134 103.22473145 -2.25062134 103.22473145 -3.75366211 102.76855469 C-6 102 -6 102 -7 101 C-7.13056618 98.3006201 -7.18526279 95.63781514 -7.1875 92.9375 C-7.19974609 92.21755859 -7.21199219 91.49761719 -7.22460938 90.75585938 C-7.23724473 85.81543423 -6.77022652 81.07509419 -6.08203125 76.18359375 C-4.17863864 62.29918088 -3.95893482 48.21398031 -3.32275391 34.22851562 C-3.14853468 30.44628777 -2.96522855 26.6645763 -2.78125 22.8828125 C-2.73222534 21.73781281 -2.68320068 20.59281311 -2.63269043 19.41311646 C-2.30673232 12.77402279 -1.52989339 6.4719865 0 0 Z " fill="#0B1D4C" transform="translate(328,352)"/>
<path d="M0 0 C1.32 0 2.64 0 4 0 C4.4125 0.825 4.825 1.65 5.25 2.5 C5.8275 3.325 6.405 4.15 7 5 C9.79071092 5.47159131 12.14585841 5.23394603 15 5 C15.33 4.34 15.66 3.68 16 3 C19.96336159 3.58716468 22.32018457 5.03047479 25 8 C25.29296875 10.27734375 25.29296875 10.27734375 25.375 12.875 C25.59864711 16.77448804 26.0132394 18.71534767 28.9375 21.375 C36.57981945 26.88749272 44.01360142 29.01511774 53.28515625 27.66796875 C57.20677318 26.75794412 59.34942463 25.89580334 61.76171875 22.57421875 C62.77169067 20.77560377 63.72611285 18.94428563 64.61328125 17.08203125 C65.07089844 16.39496094 65.52851563 15.70789063 66 15 C70 15 70 15 72.5 17.3125 C73.325 18.199375 74.15 19.08625 75 20 C78.41335176 23.19809534 81.14145079 23.45707254 85.75 23.6875 C87.8125 23.790625 89.875 23.89375 92 24 C92 31.92 92 39.84 92 48 C94.908125 48.86625 97.81625 49.7325 100.8125 50.625 C107.11487666 52.50321242 113.39290675 54.43744413 119.64794922 56.46777344 C127.03874012 58.86212066 134.2657259 60.99193731 142 62 C142 62.66 142 63.32 142 64 C143.29804565 64.19686401 143.29804565 64.19686401 144.62231445 64.39770508 C147.8434098 64.97207748 150.89856376 65.73799822 154.04296875 66.63671875 C155.18918701 66.96357666 156.33540527 67.29043457 157.51635742 67.62719727 C158.72783447 67.97709717 159.93931152 68.32699707 161.1875 68.6875 C162.44473877 69.04835693 163.70197754 69.40921387 164.99731445 69.78100586 C171.92560129 71.78186069 178.82438351 73.84888511 185.6875 76.0625 C193.69664284 78.6448587 201.77204605 80.93441358 209.8815918 83.17944336 C222.50518137 86.67883492 235.07773718 90.35110144 247.65185547 94.0234375 C250.42433536 94.83209432 253.19796263 95.63648465 255.97265625 96.4375 C261.8804306 98.15083631 267.75534417 99.90606179 273.58984375 101.85546875 C274.56880615 102.1788623 275.54776855 102.50225586 276.55639648 102.83544922 C278.45961591 103.46717221 280.35920253 104.10999535 282.25415039 104.76611328 C292.88608358 108.28758024 300.2448023 106.99931924 310.75 103.5 C313.05999945 102.7592729 315.3712491 102.02243574 317.68359375 101.2890625 C318.88097168 100.90911133 320.07834961 100.52916016 321.31201172 100.13769531 C327.44130499 98.2468899 333.62365035 96.55859594 339.8125 94.875 C341.03718994 94.54048828 342.26187988 94.20597656 343.52368164 93.86132812 C345.91311116 93.20880603 348.30267394 92.5567717 350.69238281 91.90527344 C363.25911708 88.46583952 375.74285231 84.79474929 388.1875 80.9375 C398.41335758 77.76879951 408.66811361 74.79958308 419 72 C435.60921524 67.48306058 452.1423596 62.81011914 468.59082031 57.73876953 C477.3134145 55.06400565 486.00304626 52.57550342 495 51 C495.39703125 51.75796875 495.7940625 52.5159375 496.203125 53.296875 C499.33767327 58.01232588 503.76864954 60.07877889 509 62 C513.95881709 62.90249248 518.96888229 62.98642073 524 63 C524.33 64.32 524.66 65.64 525 67 C524.49210938 67.35191406 523.98421875 67.70382812 523.4609375 68.06640625 C515.24670985 73.70695994 515.24670985 73.70695994 510.45703125 82.08203125 C510.2176904 85.56864528 510.73504027 87.64367485 512.8125 90.4375 C517.41579481 92.69401707 521.92843822 92.82236211 527 93 C526.86980469 93.96421875 526.73960937 94.9284375 526.60546875 95.921875 C526.46753906 97.18515625 526.32960938 98.4484375 526.1875 99.75 C526.03667969 101.00296875 525.88585937 102.2559375 525.73046875 103.546875 C525.64406664 107.1139624 525.64406664 107.1139624 528.20703125 109.32421875 C535.44498686 113.66699211 543.09671277 115.65249008 551.3125 117.38671875 C554 118 554 118 556 119 C554.98300822 121.69303969 554.32471104 122.81264461 551.79296875 124.2734375 C550.93316406 124.63695312 550.07335937 125.00046875 549.1875 125.375 C543.57885622 128.04193436 540.43921125 130.43122415 538.0390625 136.3828125 C537.28990646 138.5752967 536.61076806 140.76548272 536 143 C532.09237024 142.58867055 528.83741459 141.58460493 525.25 140.0625 C520.22895904 137.98924735 515.37574346 136.74392496 510 136 C509.31035156 135.89171875 508.62070312 135.7834375 507.91015625 135.671875 C503.41387592 135.28011988 501.13812943 136.40590979 497.6875 139 C493.42828683 142.04229512 490.40895137 142.89744454 485.1875 142.5859375 C481.13471214 141.84093973 477.32661382 140.72629857 473.4375 139.375 C472.38260376 139.02260254 472.38260376 139.02260254 471.30639648 138.66308594 C467.76503373 137.30764806 466.23638205 136.51015788 464.6171875 133.015625 C464.41351562 132.02046875 464.20984375 131.0253125 464 130 C461.58584254 123.33232701 459.07477178 120.694262 452.9375 117.3125 C448.69213131 115.57320798 444.30863267 115.50087918 439.76953125 115.30859375 C437.00847224 115.00094402 435.40522713 114.31098094 433 113 C429.31472913 113.10236864 427.13194509 114.53423254 424.1875 116.5625 C420.70318214 118.80475333 418.15883687 119.74775739 414.0078125 119.51171875 C410.86402092 118.71048004 408.52429652 116.87836476 405.8671875 115.07421875 C403.92288719 113.77961329 403.92288719 113.77961329 401 113.75 C392.58407292 117.25663628 386.09507635 125.19072183 382.51953125 133.3984375 C381.28702592 136.58154651 380.11175664 139.77295418 379 143 C377.58460938 143.03867187 377.58460938 143.03867187 376.140625 143.078125 C360.85483796 143.67633863 360.85483796 143.67633863 348 151 C347.29875226 154.18596662 347.29875226 154.18596662 347.25 157.6875 C347.19328125 158.86699219 347.1365625 160.04648437 347.078125 161.26171875 C347.05234375 162.16535156 347.0265625 163.06898438 347 164 C346.40832031 164.17015625 345.81664062 164.3403125 345.20703125 164.515625 C344.41683594 164.75796875 343.62664062 165.0003125 342.8125 165.25 C342.03519531 165.48203125 341.25789063 165.7140625 340.45703125 165.953125 C329.39422721 170.66668856 322.2295493 184.27375545 316 194 C312.42830565 193.38025395 310.25548874 191.90802088 307.375 189.75 C302.48057774 186.227171 297.45403396 183.5433319 292 181 C286.23337091 178.27395716 286.23337091 178.27395716 284.5625 176.3125 C282.94383159 174.71058823 282.94383159 174.71058823 279.9375 174.625 C266.40159433 175.91413387 255.58632261 182.67404665 246 192 C242.73069721 190.62381913 241.20889661 189.24508345 239.25 186.3125 C230.99954821 175.03417304 218.39013065 168.43024153 205 165 C204.875 159.25 204.875 159.25 206 157 C206.20417252 154.3982588 206.32365064 151.85481282 206.375 149.25 C206.41238281 148.54617188 206.44976562 147.84234375 206.48828125 147.1171875 C206.56252306 142.67917731 205.96536676 139.79091022 202.75195312 136.43847656 C199.00489894 133.36188191 194.79777978 131.07984292 190.5625 128.75 C189.63373047 128.22148438 188.70496094 127.69296875 187.74804688 127.1484375 C180.36790519 123.00925483 173.64383765 119.67631268 165 121 C161.66399633 123.05838525 160.1737824 124.7393264 158 128 C155.20703125 128.30078125 155.20703125 128.30078125 151.8125 128.3125 C146.20279114 128.61589485 143.26823065 129.36785617 139.34375 133.37890625 C138.17537803 134.78842475 137.05212657 136.23510781 135.9375 137.6875 C131.96489432 142.42899711 126.65769747 143.74445217 120.75 144.3125 C116.70977167 143.97581431 114.59927629 142.94018807 111.1328125 141.0234375 C107.59399406 139.32532316 103.84531887 138.67649128 100 138 C101.12223853 135.47496331 102.23865833 133.73056143 104.08984375 131.640625 C107.52932292 126.88584399 106.73860745 121.61607827 106 116 C104.94925834 112.38840554 103.61601431 109.72019187 101 107 C98.5452543 105.68022496 98.5452543 105.68022496 95.875 104.625 C92.55707698 103.23107968 91.30926821 102.69688437 89.828125 99.359375 C89.125 96.375 89.125 96.375 88.6953125 93.5234375 C87.81105126 90.31426469 86.75610277 89.7870675 84 88 C82.38677461 87.27299275 80.7454456 86.60624658 79.0859375 85.9921875 C78.16039062 85.64542969 77.23484375 85.29867187 76.28125 84.94140625 C75.3221875 84.58949219 74.363125 84.23757813 73.375 83.875 C71.46586997 83.16480363 69.55700248 82.45390098 67.6484375 81.7421875 C66.80458496 81.4313623 65.96073242 81.12053711 65.09130859 80.80029297 C63 80 63 80 61 79 C57.94079426 78.57928408 55.0532254 78.51485883 52 79 C49.24430553 81.18159145 47.56411253 82.87177494 46 86 C45.92883618 88.37402501 45.91590915 90.75000677 45.9375 93.125 C45.94652344 94.40632813 45.95554687 95.68765625 45.96484375 97.0078125 C45.97644531 97.99523437 45.98804688 98.98265625 46 100 C45.20335937 100.06058594 44.40671875 100.12117188 43.5859375 100.18359375 C36.95017822 100.69507815 36.95017822 100.69507815 30.375 101.6875 C29.59125 101.790625 28.8075 101.89375 28 102 C25.24433749 99.24433749 25.54065767 96.78460367 25 93 C23.06994771 90.64401371 23.06994771 90.64401371 19.625 90.6875 C16 89 16 89 14.96875 86.26171875 C14.6903125 85.14410156 14.411875 84.02648437 14.125 82.875 C12.17295068 75.51229115 9.34580188 72.10816375 3 68 C-0.14610928 66.19016921 -3.33699154 64.47574088 -6.5949707 62.87573242 C-10.30562278 61.03726188 -13.16290944 59.03153368 -16.30102539 56.2824707 C-19.80449928 53.63787402 -23.89405731 51.98911638 -27.875 50.1875 C-28.75414062 49.78080078 -29.63328125 49.37410156 -30.5390625 48.95507812 C-32.68910269 47.96185304 -34.84260533 46.97712027 -37 46 C-36.2883887 42.41133657 -35.11704539 40.35613631 -32.19140625 38.015625 C-29.18133641 36.62058372 -26.5559461 36.66322523 -23.25 36.5625 C-16.19934944 36.3088258 -11.41359374 34.54146272 -6 30 C-3.39525819 27.13066817 -2.6167104 25.16078402 -2.375 21.3125 C-2.08435852 17.08435852 -2.08435852 17.08435852 -1 16 C-0.92726551 12.40418863 -1.0039705 8.81856215 -1.0625 5.22265625 C-1 2 -1 2 0 0 Z " fill="#F47117" transform="translate(230,405)"/>
<path d="M0 0 C62.65392781 0 62.65392781 0 74 8 C78.09395422 12.36740537 80.75747176 16.93679403 81 23 C81.06058594 23.8353125 81.12117188 24.670625 81.18359375 25.53125 C81.47369299 31.93101497 80.90205024 36.79348529 77 42 C74.85093545 44.28093897 72.67903193 46.35901524 70 48 C69.01 48 68.02 48 67 48 C67 48.66 67 49.32 67 50 C67.969375 50.165 68.93875 50.33 69.9375 50.5 C76.2511887 52.3002371 81.32084737 57.32090255 84.73828125 62.7734375 C86.21187749 66.54182912 86.49603121 69.88496543 86.4375 73.875 C86.43137695 74.58245361 86.42525391 75.28990723 86.41894531 76.01879883 C86.2534344 81.54113406 85.32200076 85.60142492 82 90 C81.40960938 90.82886719 80.81921875 91.65773438 80.2109375 92.51171875 C77.76496878 95.26451393 75.67833678 96.52998514 72.375 98.125 C71.41335937 98.60195313 70.45171875 99.07890625 69.4609375 99.5703125 C60.38998071 103.31745718 52.5910073 104.423091 42.7734375 104.29296875 C41.68264893 104.28994751 40.59186035 104.28692627 39.46801758 104.28381348 C35.43691392 104.26824991 31.40594633 104.22636714 27.375 104.1875 C18.34125 104.125625 9.3075 104.06375 0 104 C0 69.68 0 35.36 0 0 Z " fill="#05184A" transform="translate(136,637)"/>
<path d="M0 0 C8.61533457 0.75675236 17.02698177 2.45294566 25.5 4.125 C26.67900879 4.3559285 26.67900879 4.3559285 27.88183594 4.59152222 C43.96837565 7.74289707 60.0041545 11.11916637 76.02764893 14.57495117 C80.60688514 15.56179323 85.18730768 16.5431183 89.76757812 17.52514648 C92.12718688 18.0313824 94.48658033 18.5386234 96.84570312 19.04711914 C105.16177242 20.83608511 113.4910322 22.52487699 121.84765625 24.11328125 C131.84418274 26.03012779 141.69455677 28.01160755 151.41210938 31.05615234 C157.72528191 33.00156037 164.12106825 34.48032446 170.5625 35.9375 C179.267571 37.91116558 187.9606818 39.91595649 196.625 42.0625 C197.6157251 42.30742187 198.6064502 42.55234375 199.62719727 42.8046875 C206.73747614 44.59790615 213.66098764 46.74028833 220.5625 49.21484375 C226.02433433 50.46237636 231.03124559 49.71328819 236.1875 47.4375 C239.26025396 46.22044843 241.66073493 45.33214699 245 46 C248.42898428 49.43789073 249.15895189 53.71846882 250.125 58.3125 C250.29676758 59.12154785 250.46853516 59.9305957 250.64550781 60.76416016 C253.99272815 77.28253002 253.11412046 94.22780352 253 111 C253.93070313 111.28101563 254.86140625 111.56203125 255.8203125 111.8515625 C259.03972452 113.01434768 260.98639837 114.22067505 263.08984375 116.953125 C265.03724064 121.33267852 264.61724534 126.33492468 264 131 C263.49919922 131.99966797 263.49919922 131.99966797 262.98828125 133.01953125 C261.68476589 135.6317142 261.7345033 137.65299419 261.75 140.5625 C261.74484375 141.51253906 261.7396875 142.46257812 261.734375 143.44140625 C261.95091519 146.34240787 262.33701857 148.98614422 262.8828125 151.83203125 C264.20898391 158.80094359 265.03868561 165.81987381 265.85986328 172.86181641 C266.12543832 175.12874148 266.40033022 177.39441252 266.67578125 179.66015625 C267.52562349 186.79496013 268.24484786 193.80147286 268 201 C266.77083333 201.66666667 265.54166667 202.33333333 264.3125 203 C263.62800781 203.37125 262.94351562 203.7425 262.23828125 204.125 C259.68468296 205.1232653 257.71820729 205.15233386 255 205 C254.66179834 203.4176994 254.32964061 201.83410625 254 200.25 C253.814375 199.36828125 253.62875 198.4865625 253.4375 197.578125 C253 195 253 195 253 191 C252.34 191 251.68 191 251 191 C251 195.95 251 200.9 251 206 C247.04 206 243.08 206 239 206 C238.67 197.42 238.34 188.84 238 180 C237.05306743 187.52370924 237.05306743 187.52370924 236.11547852 195.04858398 C235.99615967 195.98001221 235.87684082 196.91144043 235.75390625 197.87109375 C235.63345947 198.82943115 235.5130127 199.78776855 235.38891602 200.77514648 C235 203 235 203 234 204 C232.31391034 204.07205511 230.62499341 204.08386068 228.9375 204.0625 C228.01839844 204.05347656 227.09929687 204.04445313 226.15234375 204.03515625 C225.44207031 204.02355469 224.73179687 204.01195312 224 204 C223.76378288 197.03739488 224.68034809 190.45391068 225.75 183.58203125 C225.92756836 182.40662277 226.10513672 181.23121429 226.28808594 180.02018738 C226.85316826 176.28342228 227.4259532 172.54789764 228 168.8125 C228.57327043 165.06628357 229.14479461 161.31983034 229.71191406 157.57267761 C230.064261 155.2460228 230.42024271 152.91991484 230.78027344 150.59443665 C230.94043945 149.53951523 231.10060547 148.48459381 231.265625 147.39770508 C231.40774414 146.47363358 231.54986328 145.54956207 231.69628906 144.5974884 C232.33348431 139.21705586 232.33348431 139.21705586 230.5 134.25 C228.54792679 130.02050805 228.39063961 126.58667216 229 122 C230.56471648 117.85350134 232.45559503 114.71042733 236 112 C237.65 112 239.3 112 241 112 C240.01 86.755 240.01 86.755 239 61 C225.6835851 57.44215724 225.6835851 57.44215724 213 57 C212.67 56.34 212.34 55.68 212 55 C209.22952734 54.1181626 209.22952734 54.1181626 205.83203125 53.4140625 C204.54490234 53.12273437 203.25777344 52.83140625 201.93164062 52.53125 C200.55872187 52.22858493 199.18567425 51.92650378 197.8125 51.625 C195.1719682 51.03914918 192.53274041 50.44778417 189.89453125 49.8515625 C188.90209915 49.62807381 188.90209915 49.62807381 187.88961792 49.40007019 C183.53254797 48.40121582 179.25261709 47.23483561 174.96484375 45.96484375 C167.64087966 43.82028336 160.24458142 42.35035046 152.75 40.9375 C145.10793857 39.49118616 137.61772855 38.01034097 130.19921875 35.65844727 C126.87176058 34.66220452 123.5492037 34.08820677 120.125 33.5 C115.21183184 32.6328679 110.39178822 31.64554071 105.5625 30.375 C101.40393349 29.28598598 97.42175519 28.58611357 93.1328125 28.30859375 C90.28480816 27.89651986 87.72517994 26.92267277 85 26 C82.39882259 25.32298122 79.80373926 24.67398608 77.1875 24.0625 C76.44032715 23.88702637 75.6931543 23.71155273 74.92333984 23.53076172 C69.32887763 22.24461095 63.72733564 21.22667033 58.06542969 20.28100586 C50.14350483 18.91837087 42.3229152 17.11448507 34.48364258 15.34570312 C23.01673084 12.7618826 11.51473141 10.36029025 0 8 C0 5.36 0 2.72 0 0 Z " fill="#F37017" transform="translate(558,279)"/>
<path d="M0 0 C7.92 0 15.84 0 24 0 C24.495 19.8 24.495 19.8 25 40 C27.97 37.69 30.94 35.38 34 33 C42.31328648 29.67468541 52.73337684 29.59885301 61.14453125 33.0390625 C68.17751259 36.68140652 71.15898909 41.75598812 74 49 C74.8836617 52.65744316 75.12185725 56.04237919 75.11352539 59.80004883 C75.11341209 61.51125664 75.11341209 61.51125664 75.11329651 63.2570343 C75.10555458 65.08853279 75.10555458 65.08853279 75.09765625 66.95703125 C75.0962413 68.21513107 75.09482635 69.4732309 75.09336853 70.76945496 C75.08872573 74.10178529 75.07975228 77.43404632 75.06866455 80.76635742 C75.05840503 84.17170617 75.05386121 87.5770621 75.04882812 90.98242188 C75.03780829 97.65496945 75.02054835 104.32747524 75 111 C67.08 111 59.16 111 51 111 C50.96261719 107.44863281 50.92523438 103.89726563 50.88671875 100.23828125 C50.84049892 96.79624291 50.78926678 93.35431311 50.73754883 89.91235352 C50.70430833 87.52147017 50.67627371 85.13050852 50.65356445 82.73950195 C50.62000317 79.30125581 50.56768476 75.86372671 50.51171875 72.42578125 C50.50532883 71.35789871 50.4989389 70.29001617 50.49235535 69.18977356 C50.43067049 62.07756784 50.43067049 62.07756784 47 56 C44.12500882 53.68403488 42.30092717 53.03900908 38.625 52.5625 C33.50661867 53.18023568 29.88965803 54.94204552 26.32389832 58.82537842 C24.7374274 61.43129901 24.6059565 63.00824555 24.56762695 66.04394531 C24.54783279 67.04468079 24.52803864 68.04541626 24.50764465 69.07647705 C24.49805977 70.68604279 24.49805977 70.68604279 24.48828125 72.328125 C24.47033005 73.43226746 24.45237885 74.53640991 24.43388367 75.67401123 C24.37971773 79.19930202 24.345864 82.72445691 24.3125 86.25 C24.27933257 88.64064393 24.24484345 91.03126992 24.20898438 93.421875 C24.12150035 99.28127026 24.0614829 105.14004321 24 111 C16.08 111 8.16 111 0 111 C0 74.37 0 37.74 0 0 Z " fill="#05184A" transform="translate(277,630)"/>
<path d="M0 0 C5.94817979 5.35336181 10.40745616 11.92498512 11.35113525 20.00740051 C11.46065914 23.46092502 11.45004392 26.89291003 11.390625 30.34765625 C11.38496521 31.60009628 11.37930542 32.85253632 11.37347412 34.14292908 C11.35498158 37.44265041 11.31916413 40.7415626 11.2746582 44.04101562 C11.23344329 47.41982212 11.21540771 50.79874796 11.1953125 54.17773438 C11.15137078 60.78550866 11.08240632 67.392598 11 74 C3.74 74 -3.52 74 -11 74 C-11 71.36 -11 68.72 -11 66 C-11.64066406 66.47050781 -12.28132813 66.94101562 -12.94140625 67.42578125 C-14.23884766 68.35970703 -14.23884766 68.35970703 -15.5625 69.3125 C-16.40941406 69.92738281 -17.25632812 70.54226563 -18.12890625 71.17578125 C-24.36026375 75.13502473 -29.61895949 76.58545489 -36.875 76.5625 C-38.0664563 76.55887451 -38.0664563 76.55887451 -39.28198242 76.55517578 C-45.90079056 76.34725511 -50.26599977 74.7885394 -55 70 C-55.51820313 69.48566406 -56.03640625 68.97132813 -56.5703125 68.44140625 C-61.8512647 62.63235883 -62.57961454 56.89463924 -62.43359375 49.29296875 C-61.61559973 43.08063576 -58.59480113 39.24882764 -53.94921875 35.22265625 C-44.35780847 28.25482889 -33.14398558 26.79975132 -21.5625 26.9375 C-20.46518555 26.94426758 -20.46518555 26.94426758 -19.34570312 26.95117188 C-17.56376581 26.96281852 -15.78187137 26.98074809 -14 27 C-15.63828955 20.66731827 -15.63828955 20.66731827 -20 16 C-27.80264009 13.39911997 -35.52740284 14.62524232 -42.84375 18.02734375 C-44.89102225 18.95084156 -46.81008357 19.52717713 -49 20 C-50.34456604 18.09119643 -51.67530521 16.17264729 -53 14.25 C-54.11375 12.64898438 -54.11375 12.64898438 -55.25 11.015625 C-57 8 -57 8 -57 4 C-39.6666151 -5.24733934 -18.02776063 -12.39868435 0 0 Z " fill="#071A4C" transform="translate(426,667)"/>
<path d="M0 0 C1.609375 1.34375 1.609375 1.34375 2.65234375 3.109375 C2.5814762 6.79448782 0.02384021 8.98253763 -2.328125 11.59375 C-2.80958984 12.14804687 -3.29105469 12.70234375 -3.78710938 13.2734375 C-4.97703378 14.64008335 -6.18240015 15.99325614 -7.390625 17.34375 C-10.8456163 16.63314895 -13.76567194 15.27099171 -16.953125 13.78125 C-22.80656821 11.2992753 -28.06849443 10.3135572 -34.390625 11.34375 C-35.380625 12.00375 -36.370625 12.66375 -37.390625 13.34375 C-37.44230027 15.76642086 -37.44230027 15.76642086 -36.390625 18.34375 C-31.68220092 20.76432238 -26.87655865 22.07734795 -21.76342773 23.38500977 C-13.13214052 25.61127603 -5.61055002 27.5670542 0.609375 34.34375 C1.846875 35.6740625 1.846875 35.6740625 3.109375 37.03125 C6.61159194 42.43050112 6.38165504 49.1349243 5.609375 55.34375 C3.09828019 62.45024756 -1.17068349 66.69894784 -7.76953125 70.16015625 C-17.08097357 74.36487611 -25.20067769 74.75901431 -35.390625 74.34375 C-36.97810547 74.31474609 -36.97810547 74.31474609 -38.59765625 74.28515625 C-49.20139011 73.82654129 -58.13678728 69.90930273 -66.390625 63.34375 C-64.94112095 58.98727355 -62.71315388 56.02617711 -59.765625 52.53125 C-58.94835937 51.55542969 -58.13109375 50.57960938 -57.2890625 49.57421875 C-56.66257812 48.83816406 -56.03609375 48.10210938 -55.390625 47.34375 C-54.36582031 47.83746094 -53.34101562 48.33117187 -52.28515625 48.83984375 C-50.9246185 49.48727206 -49.56393361 50.13439121 -48.203125 50.78125 C-47.52958984 51.10673828 -46.85605469 51.43222656 -46.16210938 51.76757812 C-40.6421183 54.37947634 -35.97506643 55.48850354 -29.828125 55.53125 C-28.89871094 55.54542969 -27.96929688 55.55960938 -27.01171875 55.57421875 C-24.31574111 55.33716557 -22.69654625 54.71645136 -20.390625 53.34375 C-20.390625 51.69375 -20.390625 50.04375 -20.390625 48.34375 C-25.24370046 45.31608554 -29.58474891 43.57172436 -35.203125 42.40625 C-41.80370402 40.89423652 -47.55948796 38.88161378 -53.390625 35.34375 C-54.31875 34.786875 -55.246875 34.23 -56.203125 33.65625 C-60.81492282 28.78092088 -63.65143984 22.96137804 -64.015625 16.21875 C-63.61682192 9.34209152 -60.0734453 4.71016735 -55.203125 0.09375 C-39.28699316 -12.71594382 -16.60942911 -8.97151646 0 0 Z " fill="#071A4C" transform="translate(584.390625,668.65625)"/>
<path d="M0 0 C7.59 0 15.18 0 23 0 C23 6.6 23 13.2 23 20 C30.26 20 37.52 20 45 20 C45 26.27 45 32.54 45 39 C38.07 39 31.14 39 24 39 C24.07396352 44.07287752 24.15675255 49.14397873 24.26245117 54.21606445 C24.29571172 55.94155693 24.32374019 57.66715849 24.34643555 59.39282227 C24.37996153 61.87303166 24.43227406 64.3522403 24.48828125 66.83203125 C24.49467117 67.60400345 24.5010611 68.37597565 24.50764465 69.17134094 C24.61117039 73.30312383 24.61117039 73.30312383 26.29492188 76.9921875 C29.32645305 78.78402036 32.77509734 78.30373031 36.1875 78.1875 C36.93708984 78.17396484 37.68667969 78.16042969 38.45898438 78.14648438 C40.30629767 78.11118539 42.15324066 78.05737917 44 78 C45.34163195 82.36848453 46.2858048 86.35836485 46.625 90.9375 C46.69976563 91.89527344 46.77453125 92.85304688 46.8515625 93.83984375 C46.90054688 94.55269531 46.94953125 95.26554688 47 96 C40.8530811 98.67596816 35.80555595 99.51882298 29.125 99.4375 C28.24239502 99.42847656 27.35979004 99.41945313 26.45043945 99.41015625 C17.68391754 99.17683601 11.31792321 97.76099183 5.0625 91.3125 C-0.51597722 84.91164285 -1.44969486 76.75443288 -1.29296875 68.58984375 C-1.28872391 67.73693253 -1.28447906 66.8840213 -1.28010559 66.00526428 C-1.2634863 63.3156705 -1.22586775 60.62686231 -1.1875 57.9375 C-1.17243143 56.0996203 -1.15874686 54.26172869 -1.14648438 52.42382812 C-1.11363805 47.94892204 -1.06197498 43.4745936 -1 39 C-4.96 39 -8.92 39 -13 39 C-13 32.73 -13 26.46 -13 20 C-8.71 20 -4.42 20 0 20 C0 13.4 0 6.8 0 0 Z " fill="#081B4D" transform="translate(607,644)"/>
<path d="M0 0 C0.7525708 0.00161133 1.5051416 0.00322266 2.28051758 0.00488281 C8.1772723 0.1349161 12.64904878 1.20386952 17.6875 4.375 C18.739375 4.931875 19.79125 5.48875 20.875 6.0625 C27.0538908 11.14292133 29.50681861 16.74261513 31.6875 24.375 C31.6875 29.985 31.6875 35.595 31.6875 41.375 C15.5175 41.375 -0.6525 41.375 -17.3125 41.375 C-15.47054673 52.70710547 -15.47054673 52.70710547 -8.19140625 60.5390625 C-4.10821513 62.75545493 -0.51734008 62.99088664 4.0625 62.875 C4.80983398 62.86654053 5.55716797 62.85808105 6.32714844 62.84936523 C12.22237284 62.6600867 16.53330092 61.21270511 21.6875 58.375 C24.75 57.625 24.75 57.625 26.6875 57.375 C27.35904933 58.66413487 28.02458859 59.95640204 28.6875 61.25 C29.05875 61.96929688 29.43 62.68859375 29.8125 63.4296875 C30.6875 65.375 30.6875 65.375 30.6875 67.375 C29.00518531 68.342407 27.31634803 69.29847446 25.625 70.25 C24.68527344 70.78367187 23.74554687 71.31734375 22.77734375 71.8671875 C12.7781666 76.74668482 0.26736553 76.89827021 -10.55859375 74.72265625 C-20.48112071 71.11587188 -25.78694315 64.4769313 -30.18359375 55.14453125 C-32.50350419 49.45312466 -32.52867269 44.27218693 -32.5625 38.1875 C-32.583125 37.27935547 -32.60375 36.37121094 -32.625 35.43554688 C-32.68268199 25.36282994 -29.83062053 17.12055881 -23.3125 9.375 C-16.16810915 2.65312689 -9.7441572 -0.0216609 0 0 Z " fill="#091B4C" transform="translate(863.3125,666.625)"/>
<path d="M0 0 C-1.73248117 7.63866698 -3.86864309 14.81536384 -7 22 C-8.21816406 21.93039062 -9.43632812 21.86078125 -10.69140625 21.7890625 C-20.64811205 20.92422629 -20.64811205 20.92422629 -29.4375 24.625 C-34.79311774 30.39258834 -35.45901792 36.49023051 -35.51171875 43.9921875 C-35.52966995 44.93812775 -35.54762115 45.88406799 -35.56611633 46.8586731 C-35.62006637 49.86407079 -35.65406604 52.86931104 -35.6875 55.875 C-35.72068657 57.91929267 -35.75517747 59.9635646 -35.79101562 62.0078125 C-35.87822703 67.00522908 -35.93842661 72.00193935 -36 77 C-43.92 77 -51.84 77 -60 77 C-60 51.59 -60 26.18 -60 0 C-52.74 0 -45.48 0 -38 0 C-37.34 3.63 -36.68 7.26 -36 11 C-35.05125 9.80375 -34.1025 8.6075 -33.125 7.375 C-23.3225881 -3.70941748 -13.42165405 -5.44646831 0 0 Z " fill="#06194B" transform="translate(514,664)"/>
<path d="M0 0 C7.45230209 0.23658102 13.5519115 2.07233299 20.46533203 4.63305664 C26.0278005 6.68944356 31.6162465 8.36858585 37.36328125 9.84765625 C40.40156592 10.81037803 43.16067429 11.91329459 46.07421875 13.18359375 C55.31871931 17.10369827 64.93861708 19.96134942 74.5 23 C96.40988989 29.96306174 96.40988989 29.96306174 105.6953125 34.01220703 C108.49345599 35.21149607 111.32048767 36.11510897 114.25 36.9375 C119.89658062 38.6065727 125.34615098 40.60316268 130.83569336 42.71630859 C135.60946593 44.53254817 140.42106506 46.09605839 145.3125 47.5625 C150.72019317 49.19351443 155.74931945 51.17557856 160.83984375 53.6171875 C166.7620061 56.20859105 172.9129981 58.19480004 179.02734375 60.28125 C182.10497242 61.33246378 185.15715946 62.42328213 188.19140625 63.59375 C189.40699219 64.0578125 190.62257813 64.521875 191.875 65 C192.92429687 65.4125 193.97359375 65.825 195.0546875 66.25 C200.08937382 67.53204214 204.601669 65.92783955 209.41015625 64.27734375 C210.45445801 63.9201123 211.49875977 63.56288086 212.57470703 63.19482422 C213.70505371 62.80053223 214.83540039 62.40624023 216 62 C217.20897949 61.5786377 218.41795898 61.15727539 219.66357422 60.72314453 C222.9240795 59.58184453 226.18062952 58.42963755 229.43579102 57.27319336 C231.43106317 56.56478535 233.4274038 55.85945031 235.42382812 55.15429688 C242.71630867 52.57064471 249.95809805 49.89603034 257.15405273 47.05078125 C260.82578053 45.69510514 264.54966447 44.714856 268.3359375 43.73828125 C271.98456058 42.72715257 275.48982137 41.408601 279.03515625 40.0859375 C284.19765776 38.19506079 289.42758671 36.50316705 294.64746094 34.77880859 C298.33460597 33.55817839 302.01873582 32.32852839 305.703125 31.09960938 C308.81484411 30.06171814 311.92695198 29.02499817 315.0390625 27.98828125 C318.72273501 26.76058688 322.40518583 25.52939129 326.0859375 24.29296875 C333.49808894 21.80579387 340.91748877 19.39044903 348.40234375 17.12890625 C352.16326359 15.94876962 355.89388803 14.69453927 359.62719727 13.43041992 C367.95098306 10.6119439 376.23374742 8.00281097 384.7734375 5.921875 C387.25110876 5.21396893 389.36796688 4.44442408 391.69921875 3.40234375 C395.10821594 1.95402423 397.34361081 1.73245933 401 2 C400.34 2.33 399.68 2.66 399 3 C399 5.64 399 8.28 399 11 C398.67 11 398.34 11 398 11 C398 9.02 398 7.04 398 5 C385.09557195 9.18741441 385.09557195 9.18741441 372.42578125 14.0234375 C368.44463273 15.6261543 364.39320378 17.02634251 360.34765625 18.45703125 C355.92921999 20.02015229 351.52182315 21.61344478 347.11376953 23.20556641 C338.60889932 26.27644899 330.10045985 29.33471528 321.5625 32.3125 C313.03585539 35.28651474 304.51349582 38.27246357 295.99581909 41.27206421 C294.52852753 41.78849039 293.06102735 42.30432432 291.59329224 42.81948853 C284.00323143 45.48388041 276.43838472 48.19521497 268.91796875 51.05078125 C260.56842205 54.21466723 252.1098208 57.00309937 243.61743164 59.75537109 C236.89975057 61.93749938 230.33166033 64.1619066 223.92456055 67.14257812 C221.06528555 68.41642993 218.12493188 69.30622505 215.125 70.1875 C214.03445313 70.51105469 212.94390625 70.83460938 211.8203125 71.16796875 C210.42425781 71.57982422 210.42425781 71.57982422 209 72 C208.01 72.33 207.02 72.66 206 73 C197.46483491 73.91303854 190.64149462 71.94957659 182.75 68.875 C181.09931519 68.2564917 181.09931519 68.2564917 179.4152832 67.62548828 C172.4596729 65.00376218 165.56012746 62.24806079 158.67578125 59.4453125 C149.0916336 55.67683787 139.28939869 52.46928451 129.54904175 49.13217163 C126.96480606 48.24635759 124.38112771 47.35892285 121.79742432 46.47155762 C119.92415781 45.82935259 118.0497398 45.19050953 116.17529297 44.55175781 C109.36722747 42.21793764 102.64798386 39.75746533 96 37 C95.071875 36.61714844 94.14375 36.23429687 93.1875 35.83984375 C91.72824696 35.23790187 90.2699114 34.63373099 88.8125 34.02734375 C86.31052747 33.11342879 83.82136128 32.34694432 81.265625 31.6015625 C76.31086145 30.13661627 71.55016493 28.34008976 66.75 26.4375 C56.50741373 22.44581348 46.11280148 18.97192813 35.65722656 15.58959961 C28.86706485 13.37315245 22.24303638 10.9700786 15.67895508 8.15039062 C11.48633663 6.35000622 7.24200549 4.67990925 3 3 C3 4.65 3 6.3 3 8 C2.67 8 2.34 8 2 8 C2 5.69 2 3.38 2 1 C1.34 0.67 0.68 0.34 0 0 Z " fill="#414E6D" transform="translate(325,349)"/>
<path d="M0 0 C8.25 0 16.5 0 25 0 C25.02255146 10.15266547 25.04091534 20.30531443 25.05181217 30.45799923 C25.05704089 35.17179733 25.06413834 39.88557747 25.07543945 44.59936523 C25.08626873 49.14455404 25.09227692 53.68972552 25.09487724 58.23492622 C25.09673142 59.97294958 25.10035189 61.71097194 25.10573006 63.44898796 C25.11294103 65.87478595 25.11399092 68.30051146 25.11352539 70.72631836 C25.11712067 71.45208069 25.12071594 72.17784302 25.12442017 72.92559814 C25.11405216 77.88594784 25.11405216 77.88594784 24 79 C16.08 79 8.16 79 0 79 C0 52.93 0 26.86 0 0 Z " fill="#0E2150" transform="translate(235,663)"/>
<path d="M0 0 C4.95 0 9.9 0 15 0 C18.20112821 7.31686447 20.88603496 14.58365768 23.1940918 22.21264648 C24.56433344 26.7071896 26.1514095 31.02101385 27.953125 35.35546875 C29.32735358 38.82693424 30.55033148 42.33995982 31.75 45.875 C31.97300781 46.51832275 32.19601562 47.16164551 32.42578125 47.82446289 C33.52666381 51.11283026 34 53.47951717 34 57 C34.66 57 35.32 57 36 57 C36.22042969 55.84886719 36.44085937 54.69773437 36.66796875 53.51171875 C38.1492455 46.85702768 40.3949967 40.44092345 42.57592773 33.9909668 C43.30455929 31.83598524 44.0269106 29.67898426 44.74804688 27.52148438 C47.04523799 20.66716647 49.38515654 13.82800828 51.79296875 7.01171875 C52.39467896 5.30761841 52.39467896 5.30761841 53.00854492 3.5690918 C54 1 54 1 55 0 C57.53049402 -0.07313567 60.03304837 -0.09247527 62.5625 -0.0625 C63.62887695 -0.05573242 63.62887695 -0.05573242 64.71679688 -0.04882812 C66.47790013 -0.03700864 68.23896036 -0.01907263 70 0 C69.25096307 3.36541942 68.10435896 6.4801594 66.85546875 9.69140625 C66.21061523 11.35719727 66.21061523 11.35719727 65.55273438 13.05664062 C65.10220703 14.21357422 64.65167969 15.37050781 64.1875 16.5625 C61.42373625 23.67685808 58.68965472 30.79487439 56.10083008 37.97485352 C53.70273121 44.56497175 51.21662254 51.12279381 48.75 57.6875 C48.19005253 59.17901708 47.63015635 60.6705534 47.0703125 62.16210938 C45.7142258 65.77499717 44.3570921 69.38748911 43 73 C37.72 73 32.44 73 27 73 C22.98480418 62.52180626 18.97673386 52.0409191 14.97601318 41.55718994 C14.32033767 39.83929631 13.66445072 38.12148336 13.00836182 36.40374756 C11.04442925 31.2618303 9.08397684 26.11861148 7.128479 20.97348022 C6.50102194 19.32413137 5.87239969 17.6752253 5.24261475 16.02676392 C4.36043764 13.71693496 3.48243747 11.4055605 2.60546875 9.09375 C2.34047073 8.40258591 2.07547272 7.71142181 1.80244446 6.99931335 C0 2.22825758 0 2.22825758 0 0 Z " fill="#0A1D4C" transform="translate(756,668)"/>
<path d="M0 0 C0.70326416 0.00749268 1.40652832 0.01498535 2.13110352 0.02270508 C11.31120185 0.21238967 18.52888483 1.92206351 26.125 7.25 C30.64631792 12.11041677 31.43456152 15.17429479 31.33203125 21.65234375 C30.90472395 27.01384105 28.91243284 30.79431031 25.125 34.5 C16.03734098 41.50780304 3.42492648 41.33911626 -7.56835938 40.58251953 C-12.69487393 39.84349404 -16.83240677 37.36539295 -20.875 34.25 C-20.875 33.59 -20.875 32.93 -20.875 32.25 C-21.535 32.25 -22.195 32.25 -22.875 32.25 C-25.87788052 27.85478041 -28.38422911 24.03493162 -27.9375 18.5625 C-26.60402279 11.57992844 -22.61261949 7.72297824 -17.16796875 3.546875 C-11.72862593 0.47044942 -6.13890045 -0.08648421 0 0 Z " fill="#031748" transform="translate(526.875,260.75)"/>
<path d="M0 0 C8.61533457 0.75675236 17.02698177 2.45294566 25.5 4.125 C26.67900879 4.3559285 26.67900879 4.3559285 27.88183594 4.59152222 C43.96837565 7.74289707 60.0041545 11.11916637 76.02764893 14.57495117 C80.60688514 15.56179323 85.18730768 16.5431183 89.76757812 17.52514648 C92.12718688 18.0313824 94.48658033 18.5386234 96.84570312 19.04711914 C105.16177242 20.83608511 113.4910322 22.52487699 121.84765625 24.11328125 C131.84418274 26.03012779 141.69455677 28.01160755 151.41210938 31.05615234 C157.72528191 33.00156037 164.12106825 34.48032446 170.5625 35.9375 C205.29757295 43.81284278 205.29757295 43.81284278 220.66015625 49.1171875 C224.23732341 50.0627311 227.31636344 50.15954604 231 50 C230.67 50.66 230.34 51.32 230 52 C224.72 51.67 219.44 51.34 214 51 C214 51.66 214 52.32 214 53 C214.66 53 215.32 53 216 53 C216 53.66 216 54.32 216 55 C217.32 55.33 218.64 55.66 220 56 C216.535 56.495 216.535 56.495 213 57 C212.67 56.34 212.34 55.68 212 55 C209.22952734 54.1181626 209.22952734 54.1181626 205.83203125 53.4140625 C204.54490234 53.12273437 203.25777344 52.83140625 201.93164062 52.53125 C200.55872187 52.22858493 199.18567425 51.92650378 197.8125 51.625 C195.1719682 51.03914918 192.53274041 50.44778417 189.89453125 49.8515625 C188.90209915 49.62807381 188.90209915 49.62807381 187.88961792 49.40007019 C183.53254797 48.40121582 179.25261709 47.23483561 174.96484375 45.96484375 C167.64087966 43.82028336 160.24458142 42.35035046 152.75 40.9375 C145.10793857 39.49118616 137.61772855 38.01034097 130.19921875 35.65844727 C126.87176058 34.66220452 123.5492037 34.08820677 120.125 33.5 C115.21183184 32.6328679 110.39178822 31.64554071 105.5625 30.375 C101.40393349 29.28598598 97.42175519 28.58611357 93.1328125 28.30859375 C90.28480816 27.89651986 87.72517994 26.92267277 85 26 C82.39882259 25.32298122 79.80373926 24.67398608 77.1875 24.0625 C76.44032715 23.88702637 75.6931543 23.71155273 74.92333984 23.53076172 C69.32887763 22.24461095 63.72733564 21.22667033 58.06542969 20.28100586 C50.14350483 18.91837087 42.3229152 17.11448507 34.48364258 15.34570312 C23.01673084 12.7618826 11.51473141 10.36029025 0 8 C0 5.36 0 2.72 0 0 Z " fill="#EF6C13" transform="translate(558,279)"/>
<path d="M0 0 C4.62 0 9.24 0 14 0 C14 34.32 14 68.64 14 104 C9.38 104 4.76 104 0 104 C0 69.68 0 35.36 0 0 Z " fill="#081A4A" transform="translate(699,637)"/>
<path d="M0 0 C0.375 2.0625 0.375 2.0625 0 5 C-1.31426357 6.62553652 -2.64953946 8.23682428 -4.0625 9.77734375 C-7.87537616 14.15138919 -11.09233428 18.99829683 -14.41894531 23.74609375 C-15.54024725 25.34458966 -16.66494452 26.94070626 -17.79199219 28.53515625 C-27.13284711 41.750208 -36.08346028 55.14730091 -44.62817383 68.89135742 C-46.00083442 71.00128259 -47.46694172 73.00439808 -49 75 C-52.265625 74.83984375 -52.265625 74.83984375 -56 74 C-58.046875 71.69140625 -58.046875 71.69140625 -59.75 68.5625 C-60.408269 67.38566112 -61.06854732 66.20994468 -61.73046875 65.03515625 C-62.08415527 64.39336426 -62.4378418 63.75157227 -62.80224609 63.09033203 C-64.12647881 60.77926793 -65.54440165 58.5467669 -66.98828125 56.30859375 C-67.75156738 55.11351196 -67.75156738 55.11351196 -68.53027344 53.89428711 C-69.5391107 52.31785833 -70.55649978 50.7468645 -71.58300781 49.18188477 C-75.04245894 43.67241103 -75.04245894 43.67241103 -74.80859375 39.96875 C-74.54175781 39.3190625 -74.27492188 38.669375 -74 38 C-71.07771543 37.5723486 -68.88267592 37.47402188 -66.2890625 39.01953125 C-61.98463944 42.55461173 -58.72729149 46.73972851 -55.48046875 51.2421875 C-54.99191406 51.82226562 -54.50335937 52.40234375 -54 53 C-53.34 53 -52.68 53 -52 53 C-50.6687369 51.6019008 -50.6687369 51.6019008 -49.34765625 49.73828125 C-48.82389404 49.03759521 -48.30013184 48.33690918 -47.76049805 47.61499023 C-47.20015869 46.85516846 -46.63981934 46.09534668 -46.0625 45.3125 C-38.00356164 34.58481622 -29.70272134 24.30306691 -20 15 C-19.113125 14.113125 -18.22625 13.22625 -17.3125 12.3125 C-16.549375 11.549375 -15.78625 10.78625 -15 10 C-14.195625 9.175 -13.39125 8.35 -12.5625 7.5 C-4.875 0 -4.875 0 0 0 Z " fill="#F3D8CA" transform="translate(836,513)"/>
<path d="M0 0 C4.62 0 9.24 0 14 0 C14 24.09 14 48.18 14 73 C9.38 73 4.76 73 0 73 C0 48.91 0 24.82 0 0 Z " fill="#0A1B4B" transform="translate(732,668)"/>
<path d="M0 0 C3.980625 -0.061875 7.96125 -0.12375 12.0625 -0.1875 C13.92467163 -0.22846802 13.92467163 -0.22846802 15.82446289 -0.27026367 C22.89701802 -0.32338066 28.32839932 -0.07940702 33.9375 4.625 C35.63613145 8.42194088 35.73589517 11.9242729 35 16 C32.2511576 20.63867155 29.44235407 22.6166625 24.3984375 24.41113281 C19.80983175 25.53773268 15.194011 25.30667838 10.5 25.1875 C7.035 25.125625 3.57 25.06375 0 25 C0 16.75 0 8.5 0 0 Z " fill="#F5F6F8" transform="translate(161,697)"/>
<path d="M0 0 C3.155625 -0.061875 6.31125 -0.12375 9.5625 -0.1875 C10.5429126 -0.21481201 11.5233252 -0.24212402 12.53344727 -0.27026367 C19.01365924 -0.33136676 23.55264361 0.49925377 28.90625 4.3828125 C31.22975443 7.81827976 30.66590187 12.0674097 30 16 C26.94705243 20.31004362 24.02006346 21.71075643 19 23 C15.70184877 23.22892966 12.42891534 23.18918127 9.125 23.125 C6.11375 23.08375 3.1025 23.0425 0 23 C0 15.41 0 7.82 0 0 Z " fill="#F5F6F9" transform="translate(161,656)"/>
<path d="M0 0 C1.75105885 0.26390071 3.5007819 0.53666176 5.25 0.8125 C6.22453125 0.96332031 7.1990625 1.11414063 8.203125 1.26953125 C13.52594944 2.29357258 18.75012291 3.65635423 24 5 C25.89429181 5.47751336 27.78881775 5.95409905 29.68359375 6.4296875 C30.61993652 6.66502197 31.5562793 6.90035645 32.52099609 7.14282227 C41.29204048 9.34476117 50.07007179 11.50018065 58.875 13.5625 C69.67225417 16.10237328 80.36996948 18.98183775 90.984375 22.203125 C92.20640625 22.56921875 93.4284375 22.9353125 94.6875 23.3125 C95.74324219 23.63863281 96.79898438 23.96476562 97.88671875 24.30078125 C101.33968614 25.07629086 104.47216886 25.11981313 108 25 C107.67 25.66 107.34 26.32 107 27 C101.72 26.67 96.44 26.34 91 26 C91 26.66 91 27.32 91 28 C91.66 28 92.32 28 93 28 C93 28.66 93 29.32 93 30 C94.98 30.495 94.98 30.495 97 31 C94.69 31.33 92.38 31.66 90 32 C89.505 31.01 89.505 31.01 89 30 C86.22952734 29.1181626 86.22952734 29.1181626 82.83203125 28.4140625 C81.54490234 28.12273437 80.25777344 27.83140625 78.93164062 27.53125 C77.55872187 27.22858493 76.18567425 26.92650378 74.8125 26.625 C72.1719682 26.03914918 69.53273999 25.44778603 66.89453125 24.8515625 C66.23272858 24.70252472 65.5709259 24.55348694 64.8890686 24.39993286 C60.53737633 23.402292 56.26285414 22.23753764 51.98046875 20.96875 C44.57021198 18.7987421 37.0817663 17.31082548 29.5 15.875 C26.88441462 15.37731045 24.27019309 14.87353956 21.65625 14.3671875 C20.51994141 14.15175293 19.38363281 13.93631836 18.21289062 13.71435547 C15.04716858 13.01048748 12.05521853 12.0813349 9 11 C9 10.67 9 10.34 9 10 C12.3 10 15.6 10 19 10 C19 10.66 19 11.32 19 12 C20.60407328 12.02708567 22.2082785 12.04643483 23.8125 12.0625 C25.15248047 12.07990234 25.15248047 12.07990234 26.51953125 12.09765625 C29.13413791 12.11009967 29.13413791 12.11009967 32 11 C28.64979218 8.76652812 25.889065 8.02008262 22 7 C21.36707031 6.82339844 20.73414063 6.64679688 20.08203125 6.46484375 C15.74802423 5.29699755 11.55600685 4.66589977 7.078125 4.34375 C4.71436482 3.95275207 3.04282943 3.24346139 1 2 C0.67 1.34 0.34 0.68 0 0 Z " fill="#DA6921" transform="translate(681,304)"/>
<path d="M0 0 C3.98902307 2.31407416 6.95730918 4.63883312 8.62109375 9.04296875 C9.11609375 13.99296875 9.11609375 13.99296875 9.62109375 19.04296875 C-2.25890625 19.04296875 -14.13890625 19.04296875 -26.37890625 19.04296875 C-25.2594262 11.20660839 -23.31891607 6.20405884 -17.25390625 1.04296875 C-12.02184619 -2.30828541 -5.67541054 -2.28321113 0 0 Z " fill="#F1F2F6" transform="translate(871.37890625,678.95703125)"/>
<path d="M0 0 C4.32534982 1.97296658 7.35209601 4.02814402 10 8 C10.66036734 12.03866761 10.89569891 16.18269353 9.0546875 19.91796875 C6.51526811 23.15213496 3.97656439 25.07521758 0 26 C-6.17764673 26.58834731 -9.03736827 26.03935141 -14 22 C-17.21156322 19.23141102 -17.86673966 16.98993397 -18.4375 12.75 C-17.85814466 7.78409705 -15.71851931 5.23238261 -12 2 C-8.11939808 -0.3098821 -4.43141321 -0.79989408 0 0 Z " fill="#0B1C4D" transform="translate(251,628)"/>
<path d="M0 0 C1.72476562 0.00966797 1.72476562 0.00966797 3.484375 0.01953125 C6.25 0.1875 6.25 0.1875 7.25 1.1875 C7.91551103 5.11317267 8.05026736 8.71157439 6.12109375 12.26953125 C2.43014669 16.84707656 -0.90791403 18.65139498 -6.765625 19.46875 C-10.44860017 19.74156298 -12.34551975 19.5110842 -15.25 17.1875 C-17.33851572 13.01046856 -17.41438067 10.83816471 -16.75 6.1875 C-12.03080014 1.06379729 -6.76070975 -0.08412648 0 0 Z " fill="#EFF0F4" transform="translate(405.75,706.8125)"/>
<path d="M0 0 C5.93596508 0.59959243 11.72964122 1.42603462 17.578125 2.59375 C18.35258972 2.74533569 19.12705444 2.89692139 19.92498779 3.05310059 C22.3673477 3.53197052 24.80867321 4.0158938 27.25 4.5 C28.90097588 4.82455359 30.55201709 5.14877503 32.203125 5.47265625 C38.13746977 6.63813558 44.07028528 7.81115744 50 9 C48.1875 10.0625 48.1875 10.0625 46 11 C45.01 10.67 44.02 10.34 43 10 C39.45821402 9.74996036 39.45821402 9.74996036 36 10 C35.34 10.66 34.68 11.32 34 12 C39.27913453 14.08386889 44.39538469 14.57910004 50 15 C50 15.66 50 16.32 50 17 C51.65 17.33 53.3 17.66 55 18 C51.50146416 19.19123189 49.11297123 18.79814791 45.546875 17.9609375 C44.46317627 17.71230957 43.37947754 17.46368164 42.26293945 17.20751953 C40.52403442 16.79542236 40.52403442 16.79542236 38.75 16.375 C36.32194674 15.81626295 33.89355305 15.25900347 31.46484375 14.703125 C30.22976074 14.41888672 28.99467773 14.13464844 27.72216797 13.84179688 C21.93342974 12.53262926 16.12503004 11.32335966 10.3125 10.125 C8.75450684 9.80281494 8.75450684 9.80281494 7.16503906 9.47412109 C4.77702074 8.98112924 2.38870794 8.48963748 0 8 C0 5.36 0 2.72 0 0 Z " fill="#EA6E1E" transform="translate(558,279)"/>
<path d="M0 0 C3.0625 1.375 3.0625 1.375 5 4 C5.89843938 8.09826578 6.17197859 12.07795512 3.92578125 15.76171875 C1.23179604 18.33761146 -1.5064196 19.35394529 -5.125 19.625 C-9 19 -9 19 -11.4375 16.625 C-13.94577688 12.41109484 -14.5076354 9.99174811 -14 5 C-10.33634721 -0.55457036 -6.19314252 -1.15351479 0 0 Z " fill="#0B1C4B" transform="translate(678,723)"/>
<path d="M0 0 C4.56944444 2.13888889 4.56944444 2.13888889 6 5 C6.5801105 11.26519337 6.5801105 11.26519337 4.125 14.375 C0.33407627 17.27394168 -2.22060776 17.48603989 -7 17 C-9.93052231 15.00475077 -11.64521503 13.57163515 -12.4453125 10.02734375 C-12.63302621 6.67978256 -12.22285193 4.37141988 -10.5 1.5 C-7.02803364 -0.58317982 -3.89643676 -0.65713715 0 0 Z " fill="#081948" transform="translate(742,639)"/>
<path d="M0 0 C1.0528418 0.07831055 1.0528418 0.07831055 2.12695312 0.15820312 C3.85588054 0.28757865 5.58425355 0.42432531 7.3125 0.5625 C7.3125 1.2225 7.3125 1.8825 7.3125 2.5625 C9.29817708 2.52994792 11.28385417 2.49739583 13.26953125 2.46484375 C15.3125 2.5625 15.3125 2.5625 18.3125 3.5625 C18.3125 4.5525 18.3125 5.5425 18.3125 6.5625 C-3.58995719 7.27284996 -3.58995719 7.27284996 -9.0625 2.484375 C-9.59875 1.85015625 -10.135 1.2159375 -10.6875 0.5625 C-6.99441024 -0.66852992 -3.80699288 -0.30925152 0 0 Z " fill="#ED6C18" transform="translate(751.6875,323.4375)"/>
<path d="M0 0 C8.05753146 1.09136593 16.0509642 2.27831944 24 4 C22.1875 5.0625 22.1875 5.0625 20 6 C19.01 5.67 18.02 5.34 17 5 C13.45821402 4.74996036 13.45821402 4.74996036 10 5 C9.34 5.66 8.68 6.32 8 7 C13.27913453 9.08386889 18.39538469 9.57910004 24 10 C24 10.66 24 11.32 24 12 C26.475 12.495 26.475 12.495 29 13 C25.31753788 14.30445975 22.66951638 13.69694257 18.9140625 12.8203125 C17.73585938 12.55089844 16.55765625 12.28148437 15.34375 12.00390625 C14.1165625 11.71386719 12.889375 11.42382812 11.625 11.125 C9.20082231 10.5638003 6.77635236 10.00386126 4.3515625 9.4453125 C3.27729004 9.19281738 2.20301758 8.94032227 1.09619141 8.68017578 C-1.92512694 8.01644822 -4.94474973 7.48083943 -8 7 C-8 6.67 -8 6.34 -8 6 C-4.33333333 6 -0.66666667 6 3 6 C3 5.01 3 4.02 3 3 C2.01 2.67 1.02 2.34 0 2 C0 1.34 0 0.68 0 0 Z " fill="#D36C2A" transform="translate(584,284)"/>
<path d="M0 0 C6.78789643 0.21548878 12.67333442 1.64011669 19.0625 3.8125 C19.8248999 4.06080566 20.5872998 4.30911133 21.37280273 4.56494141 C23.53515625 5.33203125 23.53515625 5.33203125 27 7 C27.71655273 9.10424805 27.71655273 9.10424805 28 11 C22.05837993 10.43375164 17.07178852 8.6793942 11.5625 6.4375 C10.73556641 6.10814453 9.90863281 5.77878906 9.05664062 5.43945312 C7.03501907 4.63314164 5.01711551 3.81751877 3 3 C3 4.65 3 6.3 3 8 C2.67 8 2.34 8 2 8 C2 5.69 2 3.38 2 1 C1.34 0.67 0.68 0.34 0 0 Z " fill="#45506E" transform="translate(325,349)"/>
<path d="M0 0 C1.81332154 0.30769707 3.62564345 0.62129064 5.4375 0.9375 C6.95150391 1.19853516 6.95150391 1.19853516 8.49609375 1.46484375 C11 2 11 2 12 3 C13.093125 3.12375 14.18625 3.2475 15.3125 3.375 C18.91099753 3.98491484 20.37548273 4.58544412 23 7 C17.675665 9.32086397 13.56157448 8.91457003 8 8 C8 7.34 8 6.68 8 6 C6.329375 6.061875 6.329375 6.061875 4.625 6.125 C1 6 1 6 -1 4 C-0.625 1.875 -0.625 1.875 0 0 Z " fill="#F46910" transform="translate(692,308)"/>
<path d="M0 0 C6.25549698 1.50131928 12.38697246 3.30037171 18.53515625 5.1953125 C22.1400783 6.03253228 25.31262804 6.14091867 29 6 C28.67 6.66 28.34 7.32 28 8 C22.72 7.67 17.44 7.34 12 7 C12 7.66 12 8.32 12 9 C12.66 9 13.32 9 14 9 C14 9.66 14 10.32 14 11 C15.32 11.33 16.64 11.66 18 12 C15.69 12.33 13.38 12.66 11 13 C10.67 12.34 10.34 11.68 10 11 C7.30941402 10.19954337 4.66781273 9.5045341 1.9375 8.875 C1.17888672 8.69324219 0.42027344 8.51148438 -0.36132812 8.32421875 C-2.23913735 7.87543416 -4.11935915 7.43676664 -6 7 C-2.45049966 5.83693557 0.55823948 6.07634951 4.25 6.4375 C5.32765625 6.53933594 6.4053125 6.64117187 7.515625 6.74609375 C8.33546875 6.82988281 9.1553125 6.91367187 10 7 C10 6.01 10 5.02 10 4 C9.36191406 3.87882812 8.72382812 3.75765625 8.06640625 3.6328125 C7.24011719 3.46523438 6.41382813 3.29765625 5.5625 3.125 C4.73878906 2.96257812 3.91507813 2.80015625 3.06640625 2.6328125 C2.38449219 2.42398437 1.70257812 2.21515625 1 2 C0.67 1.34 0.34 0.68 0 0 Z " fill="#C56F3A" transform="translate(760,323)"/>
<path d="M0 0 C0.33 0 0.66 0 1 0 C1 9.9 1 19.8 1 30 C0.34 30 -0.32 30 -1 30 C-1.33 29.34 -1.66 28.68 -2 28 C-3.65 28.33 -5.3 28.66 -7 29 C-6.01 28.34 -5.02 27.68 -4 27 C-3.32318501 24.65896845 -3.32318501 24.65896845 -3.0859375 21.9140625 C-2.96476563 20.90085937 -2.84359375 19.88765625 -2.71875 18.84375 C-2.6053125 17.7815625 -2.491875 16.719375 -2.375 15.625 C-2.13467252 13.53363959 -1.89255522 11.44248388 -1.6484375 9.3515625 C-1.54708496 8.42166504 -1.44573242 7.49176758 -1.34130859 6.53369141 C-1.03891218 4.28886308 -0.60165411 2.18091624 0 0 Z " fill="#FEDCBB" transform="translate(796,455)"/>
<path d="M0 0 C6.625 -0.125 6.625 -0.125 10 1 C12.05893621 1.22325814 14.12233653 1.40705759 16.1875 1.5625 C17.27417969 1.64628906 18.36085938 1.73007812 19.48046875 1.81640625 C20.72763672 1.90728516 20.72763672 1.90728516 22 2 C22 2.66 22 3.32 22 4 C22.60585938 3.97679687 23.21171875 3.95359375 23.8359375 3.9296875 C30.14875029 3.79371922 35.86431929 4.53788034 42 6 C42 6.66 42 7.32 42 8 C42.66 8.33 43.32 8.66 44 9 C36.56482984 8.29901468 29.32478493 7.00309704 22 5.5625 C20.8759375 5.34529297 19.751875 5.12808594 18.59375 4.90429688 C12.3730588 3.6943143 6.17902458 2.40729903 0 1 C0 0.67 0 0.34 0 0 Z " fill="#3D2D42" transform="translate(558,278)"/>
<path d="M0 0 C8.88098029 0.57296647 17.29866141 2.53910905 25.94287109 4.53320312 C29.94488425 5.44132669 33.97115604 6.22196321 38 7 C39.66684778 7.3324265 41.33355742 7.66554817 43 8 C43 8.33 43 8.66 43 9 C41.35425434 9.02688151 39.70838587 9.04634123 38.0625 9.0625 C37.14597656 9.07410156 36.22945312 9.08570313 35.28515625 9.09765625 C33 9 33 9 32 8 C30.31816052 7.76712992 28.6287584 7.58735834 26.9375 7.4375 C26.01839844 7.35371094 25.09929688 7.26992188 24.15234375 7.18359375 C23.08693359 7.09271484 23.08693359 7.09271484 22 7 C22 6.34 22 5.68 22 5 C20.865625 5.020625 19.73125 5.04125 18.5625 5.0625 C15 5 15 5 14 4 C12.15108054 3.76636119 10.29511969 3.58696365 8.4375 3.4375 C7.42558594 3.35371094 6.41367187 3.26992188 5.37109375 3.18359375 C4.19740234 3.09271484 4.19740234 3.09271484 3 3 C3 2.34 3 1.68 3 1 C2.01 0.67 1.02 0.34 0 0 Z " fill="#DA6E2B" transform="translate(636,295)"/>
<path d="M0 0 C0.66 0.33 1.32 0.66 2 1 C1.43410156 1.44408203 0.86820312 1.88816406 0.28515625 2.34570312 C-3.93764121 6.02302499 -6.49595745 8.69376782 -7 14.40625 C-7.04021984 16.43710177 -7.03826475 18.46911045 -7 20.5 C-7.01087646 21.57628662 -7.02175293 22.65257324 -7.03295898 23.76147461 C-7.05900774 27.17535032 -7.03033841 30.58620659 -7 34 C-7.00809612 36.32423419 -7.01977722 38.64845884 -7.03515625 40.97265625 C-7.0649272 46.64898499 -7.04986488 52.32384187 -7 58 C-7.33 58 -7.66 58 -8 58 C-8.12696594 50.98929215 -8.21442112 43.97888168 -8.2746582 36.96728516 C-8.29977409 34.58305786 -8.33387324 32.19890735 -8.37719727 29.81494141 C-8.43797447 26.38424721 -8.46623993 22.95457256 -8.48828125 19.5234375 C-8.51408768 18.46071625 -8.5398941 17.397995 -8.56648254 16.30307007 C-8.56960693 8.02510363 -8.56960693 8.02510363 -5.65698242 4.40478516 C-3 2 -3 2 0 0 Z " fill="#ECEDF8" transform="translate(309,683)"/>
<path d="M0 0 C0.66 0 1.32 0 2 0 C3.17986385 2.35972769 3.1291146 3.80047732 3.1328125 6.4296875 C3.13410156 7.30753906 3.13539063 8.18539062 3.13671875 9.08984375 C3.13285156 10.00894531 3.12898438 10.92804687 3.125 11.875 C3.12886719 12.78636719 3.13273437 13.69773437 3.13671875 14.63671875 C3.13478516 15.95736328 3.13478516 15.95736328 3.1328125 17.3046875 C3.13168457 18.10890137 3.13055664 18.91311523 3.12939453 19.74169922 C3.0027734 21.95159635 2.61146326 23.87779135 2 26 C2.67546875 26.03738281 3.3509375 26.07476563 4.046875 26.11328125 C4.93890625 26.17902344 5.8309375 26.24476563 6.75 26.3125 C7.63171875 26.37050781 8.5134375 26.42851563 9.421875 26.48828125 C12.35415446 27.07029429 13.8402919 27.95635098 16 30 C16 30.66 16 31.32 16 32 C15.43152344 31.80664062 14.86304688 31.61328125 14.27734375 31.4140625 C9.54635062 29.81863577 4.81205575 28.33099414 0 27 C-0.125 21.25 -0.125 21.25 1 19 C1.09829064 16.34326192 1.13901663 13.7186515 1.125 11.0625 C1.12886719 10.33353516 1.13273437 9.60457031 1.13671875 8.85351562 C1.1308304 5.64142264 1.02261853 3.0678556 0 0 Z " fill="#E98144" transform="translate(435,543)"/>
<path d="M0 0 C2.12472576 -0.05386629 4.24983652 -0.09273071 6.375 -0.125 C7.55835938 -0.14820313 8.74171875 -0.17140625 9.9609375 -0.1953125 C13 0 13 0 15 2 C14.67 3.32 14.34 4.64 14 6 C11.03 5.67 8.06 5.34 5 5 C5 4.34 5 3.68 5 3 C3.35 2.67 1.7 2.34 0 2 C0 1.34 0 0.68 0 0 Z " fill="#F0670E" transform="translate(779,332)"/>
<path d="M0 0 C0.33 0.66 0.66 1.32 1 2 C3.32716 2.37400786 5.66117862 2.70764733 8 3 C8.33 3.33 8.66 3.66 9 4 C11.24882595 4.49277063 13.5074309 4.89872541 15.7734375 5.3046875 C18.26331468 6.08222809 19.3333888 7.03232355 21 9 C14.53315857 8.40317702 8.68706803 6.87545517 2.5 4.9375 C1.5821875 4.65583984 0.664375 4.37417969 -0.28125 4.08398438 C-2.52272203 3.3951987 -4.76215031 2.70044695 -7 2 C-4.35261084 0.5393715 -3.10551666 0 0 0 Z " fill="#362B42" transform="translate(379,467)"/>
<path d="M0 0 C2.64 0 5.28 0 8 0 C0.28350373 5.14433085 -11.78790271 8.13131019 -21 7 C-21.66 6.34 -22.32 5.68 -23 5 C-21.5459375 5.0309375 -21.5459375 5.0309375 -20.0625 5.0625 C-17.12534105 5.35618499 -17.12534105 5.35618499 -16 4 C-13.68182911 3.67902249 -11.36220643 3.48779044 -9.03125 3.28125 C-7.00819407 3.20934163 -7.00819407 3.20934163 -6 2 C-4.00041636 1.95919217 -1.99954746 1.95745644 0 2 C0 1.34 0 0.68 0 0 Z " fill="#322033" transform="translate(541,506)"/>
<path d="M0 0 C6.71751324 0.6842804 12.985566 2.62883432 19.4375 4.5625 C21.1071582 5.0565332 21.1071582 5.0565332 22.81054688 5.56054688 C25.54169158 6.3693408 28.27141986 7.18260413 31 8 C31 8.33 31 8.66 31 9 C28.03 9 25.06 9 22 9 C22 8.34 22 7.68 22 7 C20.35 7 18.7 7 17 7 C17 6.34 17 5.68 17 5 C15.4840625 5.061875 15.4840625 5.061875 13.9375 5.125 C9.81923948 4.99426157 6.88169467 4.26749214 3 3 C3 2.34 3 1.68 3 1 C2.01 0.67 1.02 0.34 0 0 Z " fill="#D66F2A" transform="translate(460,495)"/>
<path d="M0 0 C5.27749285 0.53851968 9.25645564 1.77343836 14 4 C13.01 4.495 13.01 4.495 12 5 C11.34 4.67 10.68 4.34 10 4 C10 4.66 10 5.32 10 6 C6.57056481 7.18771723 4.62215325 6.80226223 1.25 5.5625 C0.45078125 5.27503906 -0.3484375 4.98757813 -1.171875 4.69140625 C-1.77515625 4.46324219 -2.3784375 4.23507812 -3 4 C-2.01 3.67 -1.02 3.34 0 3 C0 2.01 0 1.02 0 0 Z " fill="#3E4866" transform="translate(353,357)"/>
<path d="M0 0 C7.19270839 0.46247533 14.0030827 1.25077067 21 3 C21 3.66 21 4.32 21 5 C24.3 5 27.6 5 31 5 C31 5.66 31 6.32 31 7 C28.95775363 6.88485851 26.91619841 6.75742674 24.875 6.625 C23.73804688 6.55539062 22.60109375 6.48578125 21.4296875 6.4140625 C18.01653254 6.00199596 15.22729337 5.15503131 12 4 C9.88032709 3.4378483 7.75522903 2.89572265 5.625 2.375 C4.56539062 2.11460937 3.50578125 1.85421875 2.4140625 1.5859375 C1.61742187 1.39257812 0.82078125 1.19921875 0 1 C0 0.67 0 0.34 0 0 Z " fill="#CA692F" transform="translate(631,301)"/>
<path d="M0 0 C0.33 0 0.66 0 1 0 C1.01981934 0.68102783 1.03963867 1.36205566 1.06005859 2.0637207 C1.15526983 5.14703917 1.26496466 8.22967649 1.375 11.3125 C1.42140625 12.9202832 1.42140625 12.9202832 1.46875 14.56054688 C1.50742187 15.58857422 1.54609375 16.61660156 1.5859375 17.67578125 C1.6173584 18.62364502 1.6487793 19.57150879 1.68115234 20.5480957 C1.8489051 23.2530269 1.8489051 23.2530269 4 26 C2.35 25.67 0.7 25.34 -1 25 C-1.02718316 22.14576808 -1.04692705 19.29179985 -1.0625 16.4375 C-1.07087891 15.63763672 -1.07925781 14.83777344 -1.08789062 14.01367188 C-1.10742247 9.22836896 -0.80437018 4.71854949 0 0 Z " fill="#3A2836" transform="translate(322,428)"/>
<path d="M0 0 C-4.60646787 2.156219 -8.8856431 3.5399512 -13.88671875 4.47265625 C-16.04103358 4.9195245 -16.04103358 4.9195245 -17.97265625 6.05078125 C-20.39311696 7.18406054 -22.09345 7.20313382 -24.75 7.125 C-25.54921875 7.10695313 -26.3484375 7.08890625 -27.171875 7.0703125 C-27.77515625 7.04710937 -28.3784375 7.02390625 -29 7 C-24.38199721 4.54153793 -19.50744589 3.25630224 -14.5 1.8125 C-13.07494141 1.38420898 -13.07494141 1.38420898 -11.62109375 0.94726562 C-10.70457031 0.68236328 -9.78804687 0.41746094 -8.84375 0.14453125 C-8.01037109 -0.09934326 -7.17699219 -0.34321777 -6.31835938 -0.59448242 C-3.84893677 -1.02642334 -2.35426303 -0.79276895 0 0 Z " fill="#C1672E" transform="translate(713,461)"/>
<path d="M0 0 C2.97 0 5.94 0 9 0 C9 0.66 9 1.32 9 2 C9.99 1.95875 10.98 1.9175 12 1.875 C16.23835866 1.8576652 19.93193985 2.85808838 24 4 C24 4.66 24 5.32 24 6 C24.99 6.33 25.98 6.66 27 7 C20.79786153 6.37547911 15.00570586 5.0842258 9 3.4375 C8.12988281 3.20353516 7.25976562 2.96957031 6.36328125 2.72851562 C4.24085272 2.15709256 2.11986406 1.58085043 0 1 C0 0.67 0 0.34 0 0 Z " fill="#2F293B" transform="translate(735,316)"/>
<path d="M0 0 C2.375 1.875 2.375 1.875 4 4 C4 4.66 4 5.32 4 6 C-0.29 5.67 -4.58 5.34 -9 5 C-9 3 -9 3 -7.875 1.375 C-5.12202162 -0.64385081 -3.33159215 -0.47594174 0 0 Z " fill="#F76E0D" transform="translate(728,316)"/>
<path d="M0 0 C0.33 0 0.66 0 1 0 C1 12.21 1 24.42 1 37 C1.99 37.33 2.98 37.66 4 38 C2.68 38.99 1.36 39.98 0 41 C0 27.47 0 13.94 0 0 Z " fill="#E7EDF8" transform="translate(301,630)"/>
<path d="M0 0 C6.78695435 0.70969354 13.34423721 2.07557427 20 3.5625 C21.06089844 3.79646484 22.12179687 4.03042969 23.21484375 4.27148438 C25.81062894 4.84442795 28.40563354 5.42067235 31 6 C31 6.33 31 6.66 31 7 C29.3954444 6.85851011 27.79136233 6.71164314 26.1875 6.5625 C25.29417969 6.48128906 24.40085937 6.40007812 23.48046875 6.31640625 C21 6 21 6 18 5 C16.25199171 4.84969355 14.50144791 4.72773856 12.75 4.625 C7.87183737 4.22982348 4.3396918 3.2180647 0 1 C0 0.67 0 0.34 0 0 Z " fill="#3E2C34" transform="translate(563,288)"/>
<path d="M0 0 C0 0.99 0 1.98 0 3 C-2.97 2.505 -2.97 2.505 -6 2 C-6 2.66 -6 3.32 -6 4 C-8.97 3.505 -8.97 3.505 -12 3 C-11.34 2.67 -10.68 2.34 -10 2 C-9.67 1.01 -9.34 0.02 -9 -1 C-5.79937313 -2.60031344 -3.27728194 -1.03173691 0 0 Z " fill="#384766" transform="translate(518,414)"/>
<path d="M0 0 C2.47960136 0.14024219 4.95852402 0.2869185 7.4375 0.4375 C8.14455078 0.47681641 8.85160156 0.51613281 9.58007812 0.55664062 C14.88671875 0.88671875 14.88671875 0.88671875 16 2 C17.918125 2.185625 17.918125 2.185625 19.875 2.375 C22.66720951 2.68024154 23.74292999 2.79916406 26 4.5625 C26.33 5.036875 26.66 5.51125 27 6 C25.79923828 5.79697266 25.79923828 5.79697266 24.57421875 5.58984375 C21.91172931 5.15046025 19.24887472 4.72752324 16.58203125 4.31640625 C14.99216658 4.06523656 13.40232323 3.8139319 11.8125 3.5625 C11.00619141 3.44068359 10.19988281 3.31886719 9.36914062 3.19335938 C8.59376953 3.06896484 7.81839844 2.94457031 7.01953125 2.81640625 C5.96922729 2.65313843 5.96922729 2.65313843 4.89770508 2.48657227 C3 2 3 2 0 0 Z " fill="#3B2C37" transform="translate(651,297)"/>
<path d="M0 0 C0.66 0 1.32 0 2 0 C2.13277344 0.83144531 2.26554688 1.66289062 2.40234375 2.51953125 C2.57894531 3.60621094 2.75554688 4.69289063 2.9375 5.8125 C3.19853516 7.43091797 3.19853516 7.43091797 3.46484375 9.08203125 C3.93871921 12.04933356 3.93871921 12.04933356 5 15 C2.525 14.01 2.525 14.01 0 13 C0 8.71 0 4.42 0 0 Z " fill="#FCDFBE" transform="translate(809,470)"/>
<path d="M0 0 C0.66 0 1.32 0 2 0 C0.55004713 3.42371071 -1.30366597 5.35408347 -4.0625 7.8125 C-6.79870797 10.44974927 -8.49592628 12.17679468 -9 16 C-9 16.99 -9 17.98 -9 19 C-9.33 19 -9.66 19 -10 19 C-10.52865702 15.8280579 -10.74804151 14.07582857 -10 11 C-7.3368095 7.31697663 -4.25809573 4.15955219 -1 1 C-0.67 0.67 -0.34 0.34 0 0 Z " fill="#FDEBD6" transform="translate(750,474)"/>
<path d="M0 0 C2.60590351 0.44981073 5.20940531 0.90944222 7.8125 1.375 C8.55048828 1.50132812 9.28847656 1.62765625 10.04882812 1.7578125 C13.60594646 2.40163482 15.95494084 2.96996056 19 5 C15.37 5 11.74 5 8 5 C8 4.67 8 4.34 8 4 C5.03 3.67 2.06 3.34 -1 3 C-0.67 2.01 -0.34 1.02 0 0 Z " fill="#D56B2E" transform="translate(719,313)"/>
<path d="M0 0 C0.33 0 0.66 0 1 0 C0.91915297 3.27184808 0.80631126 6.54182779 0.6875 9.8125 C0.66494141 10.74126953 0.64238281 11.67003906 0.61914062 12.62695312 C0.58369141 13.51962891 0.54824219 14.41230469 0.51171875 15.33203125 C0.48553467 16.15421143 0.45935059 16.9763916 0.43237305 17.82348633 C-0.08463956 20.42606532 -0.98202695 21.33910717 -3 23 C-2.6902353 20.1038504 -2.37728812 17.20810424 -2.0625 14.3125 C-1.97548828 13.49587891 -1.88847656 12.67925781 -1.79882812 11.83789062 C-1.36241272 7.84549781 -0.88697624 3.92347148 0 0 Z " fill="#EB843F" transform="translate(791,416)"/>
<path d="M0 0 C1.89692143 0.45380895 3.79249595 0.91324992 5.6875 1.375 C6.74324219 1.63023437 7.79898438 1.88546875 8.88671875 2.1484375 C11.70406766 2.91905489 14.31668325 3.85498543 17 5 C17 5.33 17 5.66 17 6 C15.02 6 13.04 6 11 6 C11 5.34 11 4.68 11 4 C8.02148438 4.04882812 8.02148438 4.04882812 5.04296875 4.09765625 C3 4 3 4 0 3 C0 2.01 0 1.02 0 0 Z " fill="#D26928" transform="translate(748,320)"/>
<path d="M0 0 C6.625 -0.125 6.625 -0.125 10 1 C12.05893621 1.22325814 14.12233653 1.40705759 16.1875 1.5625 C17.27417969 1.64628906 18.36085938 1.73007812 19.48046875 1.81640625 C20.72763672 1.90728516 20.72763672 1.90728516 22 2 C22 2.66 22 3.32 22 4 C22.66 4.33 23.32 4.66 24 5 C15.86290495 4.28621973 7.98268072 2.67226118 0 1 C0 0.67 0 0.34 0 0 Z " fill="#4E3239" transform="translate(558,278)"/>
<path d="M0 0 C0.66 0.33 1.32 0.66 2 1 C0.90344712 2.31886772 -0.20253423 3.62990057 -1.3125 4.9375 C-1.92738281 5.66839844 -2.54226563 6.39929688 -3.17578125 7.15234375 C-5 9 -5 9 -8 10 C-8 10.66 -8 11.32 -8 12 C-8.66 12 -9.32 12 -10 12 C-8.52278578 8.54798361 -6.56205999 6.35038064 -3.875 3.75 C-3.15054688 3.04359375 -2.42609375 2.3371875 -1.6796875 1.609375 C-1.12539063 1.07828125 -0.57109375 0.5471875 0 0 Z " fill="#FEEFD6" transform="translate(626,520)"/>
<path d="M0 0 C1.32 0 2.64 0 4 0 C4.66 2.97 5.32 5.94 6 9 C5.13375 8.071875 5.13375 8.071875 4.25 7.125 C2.19750179 5.18652947 0.56633418 4.09985751 -2 3 C-1.34 2.01 -0.68 1.02 0 0 Z " fill="#F7D2B0" transform="translate(790,328)"/>
<path d="M0 0 C1.4370809 -0.05422947 2.87475462 -0.09289723 4.3125 -0.125 C5.11300781 -0.14820313 5.91351562 -0.17140625 6.73828125 -0.1953125 C9 0 9 0 12 2 C13.19625 2.165 14.3925 2.33 15.625 2.5 C17.295625 2.7475 17.295625 2.7475 19 3 C19.33 3.66 19.66 4.32 20 5 C13.04339229 4.42978625 6.68572695 2.98697306 0 1 C0 0.67 0 0.34 0 0 Z " fill="#B86033" transform="translate(662,308)"/>
<path d="M0 0 C0.66 0.33 1.32 0.66 2 1 C1.38511719 1.56654297 1.38511719 1.56654297 0.7578125 2.14453125 C-4.232315 7.24210169 -5.26768913 12.01779464 -6 19 C-6.33 19 -6.66 19 -7 19 C-7.34781243 13.20312609 -7.27612914 9.03119831 -4 4 C-1.8125 1.625 -1.8125 1.625 0 0 Z " fill="#E57F42" transform="translate(794,391)"/>
<path d="M0 0 C0.33 0.66 0.66 1.32 1 2 C-1.64 5.3 -4.28 8.6 -7 12 C-8.32 11.67 -9.64 11.34 -11 11 C-11 10.34 -11 9.68 -11 9 C-9.9275 8.443125 -8.855 7.88625 -7.75 7.3125 C-4.35083445 5.3888343 -2.24604279 3.23430162 0 0 Z " fill="#CBD4E4" transform="translate(214,676)"/>
<path d="M0 0 C3.3 0.33 6.6 0.66 10 1 C10 1.66 10 2.32 10 3 C12.97 3.495 12.97 3.495 16 4 C11.84595154 5.38468282 8.23575387 5.02453252 4 4 C1.4375 1.9375 1.4375 1.9375 0 0 Z " fill="#C6682D" transform="translate(362,466)"/>
<path d="M0 0 C3.3 0 6.6 0 10 0 C10 0.66 10 1.32 10 2 C12.97 2.495 12.97 2.495 16 3 C12.23331402 4.3805087 9.55210827 3.59568159 5.75 2.5625 C4.13351562 2.13130859 4.13351562 2.13130859 2.484375 1.69140625 C1.25460937 1.34916016 1.25460937 1.34916016 0 1 C0 0.67 0 0.34 0 0 Z " fill="#CA6E38" transform="translate(690,314)"/>
<path d="M0 0 C4.62 0 9.24 0 14 0 C14 0.66 14 1.32 14 2 C14.66 2.33 15.32 2.66 16 3 C10.72 2.34 5.44 1.68 0 1 C0 0.67 0 0.34 0 0 Z " fill="#CB692E" transform="translate(614,298)"/>
<path d="M0 0 C-2.05962852 0.67548578 -4.12284322 1.34004312 -6.1875 2 C-7.33605469 2.37125 -8.48460937 2.7425 -9.66796875 3.125 C-12.64320812 3.90630553 -14.95283896 4.18363306 -18 4 C-17.360625 3.896875 -16.72125 3.79375 -16.0625 3.6875 C-15.381875 3.460625 -14.70125 3.23375 -14 3 C-13.67 2.01 -13.34 1.02 -13 0 C-11.39679026 -0.19551338 -9.79237014 -0.38111983 -8.1875 -0.5625 C-7.29417969 -0.66691406 -6.40085937 -0.77132813 -5.48046875 -0.87890625 C-3 -1 -3 -1 0 0 Z " fill="#2D1B34" transform="translate(649,478)"/>
<path d="M0 0 C0.66 0.33 1.32 0.66 2 1 C1.16855469 1.81404297 1.16855469 1.81404297 0.3203125 2.64453125 C-0.76636719 3.71767578 -0.76636719 3.71767578 -1.875 4.8125 C-2.59429687 5.52019531 -3.31359375 6.22789062 -4.0546875 6.95703125 C-6.15358937 9.04399194 -6.15358937 9.04399194 -8 12 C-7.92303847 8.76761586 -7.62561345 6.66772205 -5.375 4.265625 C-3.62229929 2.78148327 -1.84920638 1.36155666 0 0 Z " fill="#D4DBE8" transform="translate(309,683)"/>
<path d="M0 0 C-2.60208598 2.60208598 -4.54439038 3.24088781 -8.125 3.3125 C-12 3 -12 3 -14 1 C-9.27616037 0.34843591 -4.78025483 -0.11950637 0 0 Z " fill="#EE924D" transform="translate(654,521)"/>
<path d="M0 0 C4.29 0.33 8.58 0.66 13 1 C13 1.66 13 2.32 13 3 C13.99 3.33 14.98 3.66 16 4 C12.85681547 5.57159226 10.07066611 4.04018399 6.875 3.0625 C6.21628906 2.86720703 5.55757813 2.67191406 4.87890625 2.47070312 C3.25066448 1.98695014 1.62506818 1.49430925 0 1 C0 0.67 0 0.34 0 0 Z " fill="#3D2A3A" transform="translate(464,495)"/>
<path d="M0 0 C5.27315333 0.4452885 10.01770224 1.08373163 15 3 C15 3.33 15 3.66 15 4 C13.06166004 3.91284983 11.1242571 3.80467036 9.1875 3.6875 C8.10855469 3.62949219 7.02960937 3.57148438 5.91796875 3.51171875 C2.82502483 2.96931493 1.86977097 2.44710376 0 0 Z " fill="#483132" transform="translate(622,300)"/>
<path d="M0 0 C5.46864457 1.01591421 10.76390013 2.07091057 16 4 C12.30581799 5.231394 9.7943739 4.64432764 6 4 C6 3.34 6 2.68 6 2 C4.35 2 2.7 2 1 2 C0.67 1.34 0.34 0.68 0 0 Z " fill="#CE6627" transform="translate(328,456)"/>
<path d="M0 0 C5.23880078 0.55145271 9.97350697 1.42922093 15 3 C11.87819599 3.96661363 9.47916205 3.98988909 6.25 3.5625 C5.05117188 3.40974609 5.05117188 3.40974609 3.828125 3.25390625 C2.92320312 3.12822266 2.92320312 3.12822266 2 3 C2 2.34 2 1.68 2 1 C1.34 0.67 0.68 0.34 0 0 Z " fill="#CD6A2F" transform="translate(344,461)"/>
<path d="M0 0 C-3.20010388 1.8133922 -6.13283843 2.52213974 -9.75 3.125 C-10.73484375 3.29257812 -11.7196875 3.46015625 -12.734375 3.6328125 C-13.48203125 3.75398438 -14.2296875 3.87515625 -15 4 C-14.34 3.01 -13.68 2.02 -13 1 C-8.62250319 0.21061533 -4.45083248 -0.13908851 0 0 Z " fill="#261831" transform="translate(713,459)"/>
<path d="M0 0 C0.33 0 0.66 0 1 0 C1.08071788 2.79224073 1.14035408 5.58216566 1.1875 8.375 C1.21263672 9.1690625 1.23777344 9.963125 1.26367188 10.78125 C1.29004405 12.85586148 1.15486462 14.93100865 1 17 C0.01 17.66 -0.98 18.32 -2 19 C-1.34 12.73 -0.68 6.46 0 0 Z " fill="#E98D50" transform="translate(787,440)"/>
<path d="M0 0 C0.66 0.33 1.32 0.66 2 1 C-1.46642155 4.17755309 -5.38898294 5.45964644 -10 6 C-12.25 5.546875 -12.25 5.546875 -14 5 C-13.32453125 4.80664062 -12.6490625 4.61328125 -11.953125 4.4140625 C-10.61507812 4.02347656 -10.61507812 4.02347656 -9.25 3.625 C-8.36828125 3.36976563 -7.4865625 3.11453125 -6.578125 2.8515625 C-4.00576767 2.08115206 -4.00576767 2.08115206 -1.796875 0.8359375 C-1.20390625 0.56007813 -0.6109375 0.28421875 0 0 Z " fill="#BEC7D7" transform="translate(833,313)"/>
<path d="M0 0 C2 1.5625 2 1.5625 4 4 C4.25 7.75 4.25 7.75 4 11 C3.01 11.495 3.01 11.495 2 12 C1.855625 10.7625 1.71125 9.525 1.5625 8.25 C1.21311498 5.43495501 0.79620634 2.7298503 0 0 Z " fill="#202B4F" transform="translate(744,640)"/>
<path d="M0 0 C-4.56327794 3.53286034 -8.49633208 3.32374517 -14 3 C-4.63580818 -1.78300315 -4.63580818 -1.78300315 0 0 Z " fill="#C2652C" transform="translate(628,485)"/>
<path d="M0 0 C5.75 -0.125 5.75 -0.125 8 1 C8 1.66 8 2.32 8 3 C6.35 3 4.7 3 3 3 C3 4.65 3 6.3 3 8 C2.67 8 2.34 8 2 8 C2 5.69 2 3.38 2 1 C1.34 0.67 0.68 0.34 0 0 Z " fill="#626684" transform="translate(325,349)"/>
<path d="M0 0 C4.81449408 0.48144941 7.60171741 0.8008587 12 3 C8.37 3 4.74 3 1 3 C0.67 2.01 0.34 1.02 0 0 Z " fill="#43323B" transform="translate(682,313)"/>
<path d="M0 0 C10.55808656 0.96355353 10.55808656 0.96355353 15 2 C15 2.33 15 2.66 15 3 C13.2507786 3.08142927 11.50045458 3.13938541 9.75 3.1875 C8.28820312 3.23970703 8.28820312 3.23970703 6.796875 3.29296875 C3.62531258 2.96075202 2.32959693 2.11327721 0 0 Z " fill="#D56A26" transform="translate(608,289)"/>
<path d="M0 0 C-1.44077046 3.36179774 -3.24750021 5.59156268 -6 8 C-6.66 8 -7.32 8 -8 8 C-6.48291727 4.46014029 -4.24676932 0 0 0 Z " fill="#FEF2DF" transform="translate(777,531)"/>
<path d="M0 0 C-2.58926331 2.58926331 -4.02705279 2.37398043 -7.625 2.625 C-8.62789062 2.69976562 -9.63078125 2.77453125 -10.6640625 2.8515625 C-11.82035156 2.92503906 -11.82035156 2.92503906 -13 3 C-8.8341563 0.22277086 -4.9360889 -1.89849573 0 0 Z " fill="#BB662D" transform="translate(576,500)"/>
<path d="M0 0 C0.99 0.66 1.98 1.32 3 2 C1.29374499 4.78388975 0.52373261 5.85384206 -2.6875 6.75 C-3.8321875 6.87375 -3.8321875 6.87375 -5 7 C-3.35 4.69 -1.7 2.38 0 0 Z " fill="#212D55" transform="translate(529,716)"/>
<path d="M0 0 C1.60568666 0.28317926 3.20952047 0.57687791 4.8125 0.875 C6.15248047 1.11863281 6.15248047 1.11863281 7.51953125 1.3671875 C10 2 10 2 13 4 C8.17639811 4.19294408 4.50353262 3.75747614 0 2 C0 1.34 0 0.68 0 0 Z " fill="#D6722A" transform="translate(423,484)"/>
<path d="M0 0 C1.65 0.33 3.3 0.66 5 1 C4.67 1.99 4.34 2.98 4 4 C1.69 3.67 -0.62 3.34 -3 3 C-2.01 2.67 -1.02 2.34 0 2 C0 1.34 0 0.68 0 0 Z " fill="#4A5679" transform="translate(333,350)"/>
<path d="M0 0 C3.68266103 0.59950296 7.34543185 1.24758891 11 2 C11 2.33 11 2.66 11 3 C7.7 3 4.4 3 1 3 C0.67 2.01 0.34 1.02 0 0 Z " fill="#C26A2E" transform="translate(668,301)"/>
<path d="M0 0 C0.721875 0.185625 1.44375 0.37125 2.1875 0.5625 C5.12826973 1.01995307 7.14103058 0.73516357 10 0 C5.375 4 5.375 4 2 4 C1.34 2.68 0.68 1.36 0 0 Z " fill="#18274E" transform="translate(375,683)"/>
<path d="M0 0 C0.33 0 0.66 0 1 0 C1 2.97 1 5.94 1 9 C1.99 9.33 2.98 9.66 4 10 C2.68 10.99 1.36 11.98 0 13 C0 8.71 0 4.42 0 0 Z " fill="#D9E0F1" transform="translate(301,658)"/>
<path d="M0 0 C0.98120464 3.05263664 0.98120464 4.94736336 0 8 C0.99 8.66 1.98 9.32 3 10 C1.35 9.67 -0.3 9.34 -2 9 C-2.25 3.375 -2.25 3.375 0 0 Z " fill="#EC8B4A" transform="translate(437,561)"/>
<path d="M0 0 C0.66 0.33 1.32 0.66 2 1 C0.71937515 2.7074998 -0.61767557 4.37373596 -2 6 C-2.66 6 -3.32 6 -4 6 C-4 6.66 -4 7.32 -4 8 C-4.66 7.67 -5.32 7.34 -6 7 C-4.02 4.69 -2.04 2.38 0 0 Z " fill="#FCE7CA" transform="translate(372,535)"/>
<path d="M0 0 C1.45742463 -0.08096803 2.91612807 -0.13917774 4.375 -0.1875 C5.18710937 -0.22230469 5.99921875 -0.25710938 6.8359375 -0.29296875 C7.55007813 -0.19628906 8.26421875 -0.09960938 9 0 C9.66 0.99 10.32 1.98 11 3 C6.88425629 2.5251065 3.63616656 1.9789756 0 0 Z " fill="#40303D" transform="translate(701,308)"/>
<path d="M0 0 C0.66 0.33 1.32 0.66 2 1 C0.02 3.31 -1.96 5.62 -4 8 C-4.66 7.67 -5.32 7.34 -6 7 C-4.02 4.69 -2.04 2.38 0 0 Z " fill="#FDE8D1" transform="translate(565,573)"/>
<path d="M0 0 C2.31 0 4.62 0 7 0 C7 0.66 7 1.32 7 2 C7.66 2.33 8.32 2.66 9 3 C6.03 2.67 3.06 2.34 0 2 C0 1.34 0 0.68 0 0 Z " fill="#3A2C30" transform="translate(593,284)"/>
<path d="M0 0 C0.78375 0.04125 1.5675 0.0825 2.375 0.125 C2.375 1.115 2.375 2.105 2.375 3.125 C0.065 2.795 -2.245 2.465 -4.625 2.125 C-2.625 0.125 -2.625 0.125 0 0 Z " fill="#283657" transform="translate(545.625,706.875)"/>
<path d="M0 0 C0 0.33 0 0.66 0 1 C-0.969375 1.268125 -1.93875 1.53625 -2.9375 1.8125 C-3.948125 2.204375 -4.95875 2.59625 -6 3 C-6.33 3.99 -6.66 4.98 -7 6 C-7.66 4.35 -8.32 2.7 -9 1 C-5.8035914 -0.06546953 -3.34252724 -0.07427838 0 0 Z " fill="#E46319" transform="translate(803,327)"/>
</svg>
